<svg xmlns="http://www.w3.org/2000/svg" xmlns:xlink="http://www.w3.org/1999/xlink" width="1728" zoomAndPan="magnify" viewBox="540 778 220 172" height="2304" preserveAspectRatio="xMidYMid meet" version="1.0"><defs><clipPath id="a0cfab076f"><path d="M 540.554688 778.179688 L 755.804688 778.179688 L 755.804688 949.929688 L 540.554688 949.929688 Z M 540.554688 778.179688 " clip-rule="nonzero"/></clipPath></defs><g clip-path="url(#a0cfab076f)"><path fill="#000000" d="M 750.824219 916.070312 L 740.359375 916.070312 L 740.359375 820.5 C 740.359375 812.769531 734.449219 806.394531 726.90625 805.640625 L 726.90625 793.121094 C 726.90625 784.886719 720.199219 778.191406 711.957031 778.191406 L 584.402344 778.191406 C 576.160156 778.191406 569.453125 784.886719 569.453125 793.121094 L 569.453125 805.640625 C 561.910156 806.394531 556 812.769531 556 820.5 L 556 916.070312 L 545.539062 916.070312 C 542.785156 916.070312 540.554688 918.296875 540.554688 921.046875 C 540.554688 936.964844 553.519531 949.917969 569.453125 949.917969 L 726.90625 949.917969 C 742.839844 949.917969 755.804688 936.964844 755.804688 921.046875 C 755.804688 918.296875 753.574219 916.070312 750.824219 916.070312 Z M 569.453125 939.960938 C 560.738281 939.960938 553.378906 934.046875 551.1875 926.023438 L 745.175781 926.023438 C 742.980469 934.046875 735.621094 939.960938 726.90625 939.960938 Z M 565.96875 820.5 C 565.96875 818.273438 567.4375 816.386719 569.453125 815.75 L 569.453125 887.699219 C 569.453125 895.929688 576.160156 902.628906 584.402344 902.628906 L 711.957031 902.628906 C 720.199219 902.628906 726.90625 895.929688 726.90625 887.699219 L 726.90625 815.75 C 728.925781 816.386719 730.394531 818.273438 730.394531 820.5 L 730.394531 916.070312 L 565.96875 916.070312 Z M 584.402344 788.144531 L 711.957031 788.144531 C 714.707031 788.144531 716.941406 790.378906 716.941406 793.121094 L 716.941406 887.699219 C 716.941406 890.441406 714.707031 892.675781 711.957031 892.675781 L 584.402344 892.675781 C 581.65625 892.675781 579.421875 890.441406 579.421875 887.699219 L 579.421875 793.121094 C 579.421875 790.378906 581.65625 788.144531 584.402344 788.144531 Z M 584.402344 788.144531 " fill-opacity="1" fill-rule="nonzero"/></g><path fill="#000000" d="M 609.234375 806.105469 L 603.488281 825.828125 C 602.902344 827.835938 604.101562 829.957031 605.820312 829.957031 C 606.882812 829.957031 607.828125 829.113281 608.167969 827.863281 L 608.847656 825.382812 L 616.625 825.382812 L 617.300781 827.863281 C 617.640625 829.113281 618.585938 829.957031 619.652344 829.957031 L 619.710938 829.957031 C 621.429688 829.957031 622.628906 827.835938 622.042969 825.828125 L 616.296875 806.105469 C 615.941406 804.886719 615.007812 804.074219 613.964844 804.074219 L 611.566406 804.074219 C 610.519531 804.074219 609.589844 804.886719 609.234375 806.105469 Z M 615.320312 820.519531 L 610.183594 820.519531 L 612.734375 811.042969 Z M 615.320312 820.519531 " fill-opacity="1" fill-rule="nonzero"/><path fill="#000000" d="M 625.53125 827.523438 C 625.53125 828.867188 626.410156 829.957031 627.492188 829.957031 L 628.648438 829.957031 C 629.734375 829.957031 630.609375 828.867188 630.609375 827.523438 L 630.609375 820.664062 L 633.757812 820.664062 C 639.074219 820.664062 641.417969 816.683594 641.417969 812.40625 C 641.417969 807.648438 638.863281 804.074219 633.757812 804.074219 L 626.628906 804.074219 C 626.023438 804.074219 625.53125 804.683594 625.53125 805.433594 Z M 636.25 812.40625 C 636.25 814.398438 635.390625 815.652344 633.371094 815.652344 L 630.609375 815.652344 L 630.609375 809.160156 L 633.371094 809.160156 C 635.390625 809.160156 636.25 810.414062 636.25 812.40625 Z M 636.25 812.40625 " fill-opacity="1" fill-rule="nonzero"/><path fill="#000000" d="M 644.058594 827.523438 C 644.058594 828.867188 644.9375 829.957031 646.019531 829.957031 L 647.179688 829.957031 C 648.261719 829.957031 649.136719 828.867188 649.136719 827.523438 L 649.136719 820.664062 L 652.285156 820.664062 C 657.601562 820.664062 659.945312 816.683594 659.945312 812.40625 C 659.945312 807.648438 657.390625 804.074219 652.285156 804.074219 L 645.15625 804.074219 C 644.550781 804.074219 644.058594 804.683594 644.058594 805.433594 Z M 654.777344 812.40625 C 654.777344 814.398438 653.917969 815.652344 651.898438 815.652344 L 649.136719 815.652344 L 649.136719 809.160156 L 651.898438 809.160156 C 653.917969 809.160156 654.777344 810.414062 654.777344 812.40625 Z M 654.777344 812.40625 " fill-opacity="1" fill-rule="nonzero"/><path fill="#000000" d="M 662.585938 807.226562 L 662.585938 829.957031 L 672.355469 829.957031 C 673.4375 829.957031 674.316406 828.867188 674.316406 827.523438 C 674.316406 826.179688 673.4375 825.089844 672.355469 825.089844 L 667.664062 825.089844 L 667.664062 807.226562 C 667.664062 805.484375 666.527344 804.074219 665.125 804.074219 C 663.722656 804.074219 662.585938 805.484375 662.585938 807.226562 Z M 662.585938 807.226562 " fill-opacity="1" fill-rule="nonzero"/><path fill="#000000" d="M 677.023438 808.648438 L 682.113281 820.878906 C 682.257812 821.222656 682.332031 821.605469 682.332031 821.996094 L 682.332031 826.804688 C 682.332031 828.546875 683.46875 829.957031 684.871094 829.957031 C 686.273438 829.957031 687.410156 828.546875 687.410156 826.804688 L 687.410156 821.996094 C 687.410156 821.605469 687.484375 821.222656 687.628906 820.878906 L 692.742188 808.597656 C 693.601562 806.535156 692.394531 804.074219 690.523438 804.074219 C 689.550781 804.074219 688.664062 804.777344 688.257812 805.878906 L 684.914062 814.914062 L 681.554688 805.890625 C 681.140625 804.78125 680.246094 804.074219 679.265625 804.074219 C 677.371094 804.074219 676.152344 806.5625 677.023438 808.648438 Z M 677.023438 808.648438 " fill-opacity="1" fill-rule="nonzero"/><path fill="#000000" d="M 700 848.871094 L 596.359375 848.871094 C 593.609375 848.871094 591.378906 851.101562 591.378906 853.847656 C 591.378906 856.597656 593.609375 858.828125 596.359375 858.828125 L 700 858.828125 C 702.75 858.828125 704.984375 856.597656 704.984375 853.847656 C 704.984375 851.101562 702.75 848.871094 700 848.871094 Z M 700 848.871094 " fill-opacity="1" fill-rule="nonzero"/><path fill="#000000" d="M 700 869.03125 L 596.359375 869.03125 C 593.609375 869.03125 591.378906 871.261719 591.378906 874.007812 C 591.378906 876.757812 593.609375 878.988281 596.359375 878.988281 L 700 878.988281 C 702.75 878.988281 704.984375 876.757812 704.984375 874.007812 C 704.984375 871.261719 702.75 869.03125 700 869.03125 Z M 700 869.03125 " fill-opacity="1" fill-rule="nonzero"/></svg>