<svg id="visual" viewBox="0 0 900 600" width="900" height="600" xmlns="http://www.w3.org/2000/svg" xmlns:xlink="http://www.w3.org/1999/xlink" version="1.1"><rect x="0" y="0" width="900" height="600" fill="#dfe4ec"></rect><defs><linearGradient id="grad1_0" x1="33.3%" y1="0%" x2="100%" y2="100%"><stop offset="20%" stop-color="#dfe4ec" stop-opacity="1"></stop><stop offset="80%" stop-color="#dfe4ec" stop-opacity="1"></stop></linearGradient></defs><defs><linearGradient id="grad2_0" x1="0%" y1="0%" x2="66.7%" y2="100%"><stop offset="20%" stop-color="#dfe4ec" stop-opacity="1"></stop><stop offset="80%" stop-color="#dfe4ec" stop-opacity="1"></stop></linearGradient></defs><g transform="translate(900, 0)"><path d="M0 486.7C-62.6 479.7 -125.3 472.7 -186.3 449.7C-247.3 426.7 -306.6 387.8 -335.2 335.2C-363.7 282.5 -361.4 216.2 -381.6 158C-401.7 99.9 -444.2 50 -486.7 0L0 0Z" fill="#f2f8fb"></path></g><g transform="translate(0, 600)"><path d="M0 -486.7C57.2 -466.1 114.4 -445.5 176.4 -425.9C238.5 -406.3 305.3 -387.6 344.2 -344.2C383 -300.8 393.9 -232.6 413 -171.1C432.1 -109.6 459.4 -54.8 486.7 0L0 0Z" fill="#f2f8fb"></path></g></svg>