<svg xmlns="http://www.w3.org/2000/svg" xmlns:xlink="http://www.w3.org/1999/xlink" width="816" zoomAndPan="magnify" viewBox="183 273 245 247" height="1056" preserveAspectRatio="xMidYMid meet" version="1.0"><defs><clipPath id="e0aa7e2d11"><path d="M 428.398438 0 L 612 0 L 612 183.601562 L 428.398438 183.601562 Z M 428.398438 0 " clip-rule="nonzero"/></clipPath><clipPath id="273334817d"><path d="M 340 255.210938 L 389 255.210938 L 389 304 L 340 304 Z M 340 255.210938 " clip-rule="nonzero"/></clipPath><clipPath id="e526214747"><path d="M 223 255.210938 L 273 255.210938 L 273 304 L 223 304 Z M 223 255.210938 " clip-rule="nonzero"/></clipPath><clipPath id="ecd8ecabbb"><path d="M 160.292969 352 L 214 352 L 214 536.460938 L 160.292969 536.460938 Z M 160.292969 352 " clip-rule="nonzero"/></clipPath><clipPath id="d9380c2eb3"><path d="M 184 410 L 268 410 L 268 536.460938 L 184 536.460938 Z M 184 410 " clip-rule="nonzero"/></clipPath><clipPath id="07bf1d6b8c"><path d="M 345 410 L 428 410 L 428 536.460938 L 345 536.460938 Z M 345 410 " clip-rule="nonzero"/></clipPath><clipPath id="78fd3251e9"><path d="M 398 352 L 452 352 L 452 536.460938 L 398 536.460938 Z M 398 352 " clip-rule="nonzero"/></clipPath></defs><rect x="-61.2" width="734.4" fill="#ffffff" y="-79.199999" height="950.399992" fill-opacity="1"/><rect x="-61.2" width="734.4" fill="#1a73e8" y="-79.199999" height="950.399992" fill-opacity="1"/><g clip-path="url(#e0aa7e2d11)"><path fill="#1a73e8" d="M 428.398438 0 L 612 0 L 612 183.601562 L 428.398438 183.601562 Z M 428.398438 0 " fill-opacity="1" fill-rule="nonzero"/></g><path fill="#000000" d="M 349.910156 415.230469 L 349.910156 371.589844 C 349.910156 347.539062 330.277344 327.945312 306.167969 327.945312 C 282.058594 327.945312 262.421875 347.539062 262.421875 371.589844 L 262.421875 415.230469 C 262.421875 417.898438 264.609375 420.082031 267.285156 420.082031 L 345.050781 420.082031 C 347.722656 420.082031 349.910156 417.898438 349.910156 415.230469 Z M 349.910156 415.230469 " fill-opacity="1" fill-rule="nonzero"/><path fill="#000000" d="M 359.632812 371.589844 L 359.632812 400.683594 L 403.375 400.683594 C 406.050781 400.683594 408.238281 398.503906 408.238281 395.835938 L 408.238281 352.191406 C 408.238281 328.140625 388.601562 308.550781 364.492188 308.550781 C 350.980469 308.550781 338.925781 314.710938 330.90625 324.308594 C 347.96875 333.234375 359.632812 351.078125 359.632812 371.589844 Z M 359.632812 371.589844 " fill-opacity="1" fill-rule="nonzero"/><path fill="#000000" d="M 208.957031 400.683594 L 252.703125 400.683594 L 252.703125 371.589844 C 252.703125 351.078125 264.367188 333.234375 281.429688 324.308594 C 273.40625 314.710938 261.355469 308.550781 247.84375 308.550781 C 223.734375 308.550781 204.097656 328.140625 204.097656 352.191406 L 204.097656 395.835938 C 204.097656 398.503906 206.285156 400.683594 208.957031 400.683594 Z M 208.957031 400.683594 " fill-opacity="1" fill-rule="nonzero"/><path fill="#000000" d="M 330.46875 298.851562 C 330.46875 299.648438 330.429688 300.4375 330.351562 301.230469 C 330.273438 302.019531 330.15625 302.804688 330.003906 303.582031 C 329.847656 304.363281 329.65625 305.128906 329.421875 305.890625 C 329.191406 306.652344 328.925781 307.398438 328.621094 308.128906 C 328.316406 308.863281 327.976562 309.582031 327.601562 310.28125 C 327.226562 310.980469 326.816406 311.664062 326.375 312.324219 C 325.933594 312.984375 325.457031 313.621094 324.953125 314.234375 C 324.449219 314.847656 323.914062 315.433594 323.351562 315.996094 C 322.789062 316.558594 322.199219 317.089844 321.585938 317.59375 C 320.96875 318.097656 320.332031 318.570312 319.667969 319.011719 C 319.007812 319.453125 318.324219 319.859375 317.625 320.234375 C 316.921875 320.609375 316.203125 320.949219 315.46875 321.253906 C 314.730469 321.554688 313.984375 321.824219 313.222656 322.054688 C 312.460938 322.285156 311.6875 322.476562 310.910156 322.632812 C 310.128906 322.789062 309.339844 322.902344 308.550781 322.980469 C 307.757812 323.058594 306.964844 323.097656 306.167969 323.097656 C 305.371094 323.097656 304.578125 323.058594 303.785156 322.980469 C 302.992188 322.902344 302.207031 322.789062 301.425781 322.632812 C 300.644531 322.476562 299.875 322.285156 299.113281 322.054688 C 298.351562 321.824219 297.601562 321.554688 296.867188 321.253906 C 296.132812 320.949219 295.414062 320.609375 294.710938 320.234375 C 294.007812 319.859375 293.328125 319.453125 292.664062 319.011719 C 292.003906 318.570312 291.367188 318.097656 290.75 317.59375 C 290.136719 317.089844 289.546875 316.558594 288.984375 315.996094 C 288.421875 315.433594 287.886719 314.847656 287.382812 314.234375 C 286.875 313.621094 286.402344 312.984375 285.960938 312.324219 C 285.519531 311.664062 285.109375 310.980469 284.734375 310.28125 C 284.359375 309.582031 284.019531 308.863281 283.714844 308.128906 C 283.410156 307.398438 283.144531 306.652344 282.910156 305.890625 C 282.679688 305.128906 282.488281 304.363281 282.332031 303.582031 C 282.175781 302.804688 282.058594 302.019531 281.980469 301.230469 C 281.902344 300.4375 281.867188 299.648438 281.867188 298.851562 C 281.867188 298.058594 281.902344 297.265625 281.980469 296.476562 C 282.058594 295.6875 282.175781 294.902344 282.332031 294.121094 C 282.488281 293.34375 282.679688 292.574219 282.910156 291.8125 C 283.144531 291.054688 283.410156 290.308594 283.714844 289.574219 C 284.019531 288.839844 284.359375 288.125 284.734375 287.421875 C 285.109375 286.722656 285.519531 286.042969 285.960938 285.382812 C 286.402344 284.722656 286.875 284.085938 287.382812 283.472656 C 287.886719 282.855469 288.421875 282.269531 288.984375 281.707031 C 289.546875 281.148438 290.136719 280.613281 290.75 280.109375 C 291.367188 279.605469 292.003906 279.132812 292.664062 278.691406 C 293.328125 278.25 294.007812 277.84375 294.710938 277.46875 C 295.414062 277.09375 296.132812 276.757812 296.867188 276.453125 C 297.601562 276.148438 298.351562 275.882812 299.113281 275.652344 C 299.875 275.421875 300.644531 275.226562 301.425781 275.074219 C 302.207031 274.917969 302.992188 274.800781 303.785156 274.722656 C 304.578125 274.644531 305.371094 274.605469 306.167969 274.605469 C 306.964844 274.605469 307.757812 274.644531 308.550781 274.722656 C 309.339844 274.800781 310.128906 274.917969 310.910156 275.074219 C 311.6875 275.226562 312.460938 275.421875 313.222656 275.652344 C 313.984375 275.882812 314.730469 276.148438 315.46875 276.453125 C 316.203125 276.757812 316.921875 277.09375 317.625 277.46875 C 318.324219 277.84375 319.007812 278.25 319.667969 278.691406 C 320.332031 279.132812 320.96875 279.605469 321.585938 280.109375 C 322.199219 280.613281 322.789062 281.148438 323.351562 281.707031 C 323.914062 282.269531 324.449219 282.855469 324.953125 283.472656 C 325.457031 284.085938 325.933594 284.722656 326.375 285.382812 C 326.816406 286.042969 327.226562 286.722656 327.601562 287.421875 C 327.976562 288.125 328.316406 288.839844 328.621094 289.574219 C 328.925781 290.308594 329.191406 291.054688 329.421875 291.8125 C 329.65625 292.574219 329.847656 293.34375 330.003906 294.121094 C 330.15625 294.902344 330.273438 295.6875 330.351562 296.476562 C 330.429688 297.265625 330.46875 298.058594 330.46875 298.851562 Z M 330.46875 298.851562 " fill-opacity="1" fill-rule="nonzero"/><g clip-path="url(#273334817d)"><path fill="#000000" d="M 388.796875 279.457031 C 388.796875 280.25 388.757812 281.042969 388.679688 281.832031 C 388.601562 282.621094 388.484375 283.40625 388.328125 284.1875 C 388.171875 284.964844 387.980469 285.734375 387.75 286.492188 C 387.519531 287.253906 387.25 288 386.945312 288.734375 C 386.640625 289.46875 386.300781 290.183594 385.925781 290.886719 C 385.550781 291.585938 385.140625 292.265625 384.699219 292.925781 C 384.257812 293.585938 383.785156 294.222656 383.277344 294.835938 C 382.773438 295.449219 382.238281 296.039062 381.675781 296.601562 C 381.113281 297.160156 380.527344 297.695312 379.910156 298.199219 C 379.296875 298.703125 378.65625 299.175781 377.996094 299.617188 C 377.332031 300.054688 376.652344 300.464844 375.949219 300.839844 C 375.246094 301.214844 374.527344 301.550781 373.792969 301.855469 C 373.058594 302.160156 372.308594 302.425781 371.546875 302.65625 C 370.785156 302.886719 370.015625 303.082031 369.234375 303.234375 C 368.453125 303.390625 367.667969 303.507812 366.875 303.585938 C 366.082031 303.664062 365.289062 303.703125 364.492188 303.703125 C 363.695312 303.703125 362.902344 303.664062 362.109375 303.585938 C 361.320312 303.507812 360.53125 303.390625 359.75 303.234375 C 358.972656 303.082031 358.199219 302.886719 357.4375 302.65625 C 356.675781 302.425781 355.929688 302.160156 355.191406 301.855469 C 354.457031 301.550781 353.738281 301.214844 353.035156 300.839844 C 352.335938 300.464844 351.652344 300.054688 350.992188 299.617188 C 350.328125 299.175781 349.691406 298.703125 349.074219 298.199219 C 348.460938 297.695312 347.871094 297.160156 347.308594 296.601562 C 346.746094 296.039062 346.210938 295.449219 345.707031 294.835938 C 345.203125 294.222656 344.730469 293.585938 344.285156 292.925781 C 343.84375 292.265625 343.433594 291.585938 343.058594 290.886719 C 342.683594 290.183594 342.34375 289.46875 342.039062 288.734375 C 341.734375 288 341.46875 287.253906 341.238281 286.492188 C 341.007812 285.734375 340.8125 284.964844 340.65625 284.1875 C 340.503906 283.40625 340.386719 282.621094 340.308594 281.832031 C 340.230469 281.042969 340.191406 280.25 340.191406 279.457031 C 340.191406 278.660156 340.230469 277.871094 340.308594 277.078125 C 340.386719 276.289062 340.503906 275.503906 340.65625 274.726562 C 340.8125 273.945312 341.007812 273.175781 341.238281 272.417969 C 341.46875 271.65625 341.734375 270.910156 342.039062 270.175781 C 342.34375 269.445312 342.683594 268.726562 343.058594 268.027344 C 343.433594 267.328125 343.84375 266.644531 344.285156 265.984375 C 344.730469 265.324219 345.203125 264.6875 345.707031 264.074219 C 346.210938 263.460938 346.746094 262.875 347.308594 262.3125 C 347.871094 261.75 348.460938 261.21875 349.074219 260.714844 C 349.691406 260.210938 350.328125 259.738281 350.992188 259.296875 C 351.652344 258.855469 352.335938 258.449219 353.035156 258.074219 C 353.738281 257.699219 354.457031 257.359375 355.191406 257.054688 C 355.929688 256.75 356.675781 256.484375 357.4375 256.253906 C 358.199219 256.023438 358.972656 255.832031 359.75 255.675781 C 360.53125 255.519531 361.320312 255.40625 362.109375 255.328125 C 362.902344 255.25 363.695312 255.210938 364.492188 255.210938 C 365.289062 255.210938 366.082031 255.25 366.875 255.328125 C 367.667969 255.40625 368.453125 255.519531 369.234375 255.675781 C 370.015625 255.832031 370.785156 256.023438 371.546875 256.253906 C 372.308594 256.484375 373.058594 256.75 373.792969 257.054688 C 374.527344 257.359375 375.246094 257.699219 375.949219 258.074219 C 376.652344 258.449219 377.332031 258.855469 377.996094 259.296875 C 378.65625 259.738281 379.296875 260.210938 379.910156 260.714844 C 380.527344 261.21875 381.113281 261.75 381.675781 262.3125 C 382.238281 262.875 382.773438 263.460938 383.277344 264.074219 C 383.785156 264.6875 384.257812 265.324219 384.699219 265.984375 C 385.140625 266.644531 385.550781 267.328125 385.925781 268.027344 C 386.300781 268.726562 386.640625 269.445312 386.945312 270.175781 C 387.25 270.910156 387.519531 271.65625 387.75 272.417969 C 387.980469 273.175781 388.171875 273.945312 388.328125 274.726562 C 388.484375 275.503906 388.601562 276.289062 388.679688 277.078125 C 388.757812 277.871094 388.796875 278.660156 388.796875 279.457031 Z M 388.796875 279.457031 " fill-opacity="1" fill-rule="nonzero"/></g><g clip-path="url(#e526214747)"><path fill="#000000" d="M 272.144531 279.457031 C 272.144531 280.25 272.105469 281.042969 272.027344 281.832031 C 271.949219 282.621094 271.832031 283.40625 271.675781 284.1875 C 271.523438 284.964844 271.328125 285.734375 271.097656 286.492188 C 270.867188 287.253906 270.597656 288 270.292969 288.734375 C 269.988281 289.46875 269.648438 290.183594 269.273438 290.886719 C 268.898438 291.585938 268.492188 292.265625 268.046875 292.925781 C 267.605469 293.585938 267.132812 294.222656 266.628906 294.835938 C 266.121094 295.449219 265.589844 296.039062 265.027344 296.601562 C 264.464844 297.160156 263.875 297.695312 263.257812 298.199219 C 262.644531 298.703125 262.003906 299.175781 261.34375 299.617188 C 260.683594 300.054688 260 300.464844 259.296875 300.839844 C 258.597656 301.214844 257.878906 301.550781 257.140625 301.855469 C 256.40625 302.160156 255.660156 302.425781 254.898438 302.65625 C 254.136719 302.886719 253.363281 303.082031 252.582031 303.234375 C 251.800781 303.390625 251.015625 303.507812 250.222656 303.585938 C 249.433594 303.664062 248.636719 303.703125 247.84375 303.703125 C 247.046875 303.703125 246.253906 303.664062 245.460938 303.585938 C 244.667969 303.507812 243.882812 303.390625 243.101562 303.234375 C 242.320312 303.082031 241.550781 302.886719 240.789062 302.65625 C 240.027344 302.425781 239.277344 302.160156 238.542969 301.855469 C 237.804688 301.550781 237.089844 301.214844 236.386719 300.839844 C 235.683594 300.464844 235.003906 300.054688 234.339844 299.617188 C 233.679688 299.175781 233.039062 298.703125 232.425781 298.199219 C 231.808594 297.695312 231.21875 297.160156 230.65625 296.601562 C 230.09375 296.039062 229.5625 295.449219 229.054688 294.835938 C 228.550781 294.222656 228.078125 293.585938 227.636719 292.925781 C 227.191406 292.265625 226.785156 291.585938 226.410156 290.886719 C 226.035156 290.183594 225.695312 289.46875 225.390625 288.734375 C 225.085938 288 224.816406 287.253906 224.585938 286.492188 C 224.355469 285.734375 224.160156 284.964844 224.007812 284.1875 C 223.851562 283.40625 223.734375 282.621094 223.65625 281.832031 C 223.578125 281.042969 223.539062 280.25 223.539062 279.457031 C 223.539062 278.660156 223.578125 277.871094 223.65625 277.078125 C 223.734375 276.289062 223.851562 275.503906 224.007812 274.726562 C 224.160156 273.945312 224.355469 273.175781 224.585938 272.417969 C 224.816406 271.65625 225.085938 270.910156 225.390625 270.175781 C 225.695312 269.445312 226.035156 268.726562 226.410156 268.027344 C 226.785156 267.328125 227.191406 266.644531 227.636719 265.984375 C 228.078125 265.324219 228.550781 264.6875 229.054688 264.074219 C 229.5625 263.460938 230.09375 262.875 230.65625 262.3125 C 231.21875 261.75 231.808594 261.21875 232.425781 260.714844 C 233.039062 260.210938 233.679688 259.738281 234.339844 259.296875 C 235.003906 258.855469 235.683594 258.449219 236.386719 258.074219 C 237.089844 257.699219 237.804688 257.359375 238.542969 257.054688 C 239.277344 256.75 240.027344 256.484375 240.789062 256.253906 C 241.550781 256.023438 242.320312 255.832031 243.101562 255.675781 C 243.882812 255.519531 244.667969 255.40625 245.460938 255.328125 C 246.253906 255.25 247.046875 255.210938 247.84375 255.210938 C 248.636719 255.210938 249.433594 255.25 250.222656 255.328125 C 251.015625 255.40625 251.800781 255.519531 252.582031 255.675781 C 253.363281 255.832031 254.136719 256.023438 254.898438 256.253906 C 255.660156 256.484375 256.40625 256.75 257.140625 257.054688 C 257.878906 257.359375 258.597656 257.699219 259.296875 258.074219 C 260 258.449219 260.683594 258.855469 261.34375 259.296875 C 262.003906 259.738281 262.644531 260.210938 263.257812 260.714844 C 263.875 261.21875 264.464844 261.75 265.027344 262.3125 C 265.589844 262.875 266.121094 263.460938 266.628906 264.074219 C 267.132812 264.6875 267.605469 265.324219 268.046875 265.984375 C 268.492188 266.644531 268.898438 267.328125 269.273438 268.027344 C 269.648438 268.726562 269.988281 269.445312 270.292969 270.175781 C 270.597656 270.910156 270.867188 271.65625 271.097656 272.417969 C 271.328125 273.175781 271.523438 273.945312 271.675781 274.726562 C 271.832031 275.503906 271.949219 276.289062 272.027344 277.078125 C 272.105469 277.871094 272.144531 278.660156 272.144531 279.457031 Z M 272.144531 279.457031 " fill-opacity="1" fill-rule="nonzero"/></g><g clip-path="url(#ecd8ecabbb)"><path fill="#000000" d="M 177.804688 455.625 C 172.796875 450.242188 170.074219 443.210938 170.074219 435.890625 L 170.074219 369.164062 C 170.074219 367.128906 170.949219 365.140625 172.457031 363.78125 C 174.011719 362.375 176.003906 361.746094 178.09375 361.941406 C 181.738281 362.328125 184.609375 365.769531 184.609375 369.84375 L 184.609375 400.003906 C 184.609375 402.671875 186.792969 404.855469 189.46875 404.855469 C 192.140625 404.855469 194.328125 402.671875 194.328125 400.003906 L 194.328125 369.84375 C 194.328125 360.824219 187.621094 353.113281 179.066406 352.289062 C 174.253906 351.804688 169.492188 353.355469 165.894531 356.605469 C 162.347656 359.804688 160.304688 364.414062 160.304688 369.214844 L 160.304688 435.9375 C 160.304688 445.734375 163.949219 455.042969 170.609375 462.269531 L 202.738281 497.035156 C 203.5625 497.957031 204.050781 499.121094 204.050781 500.335938 L 204.050781 531.707031 C 204.050781 534.375 206.238281 536.558594 208.910156 536.558594 C 211.582031 536.558594 213.769531 534.375 213.769531 531.707031 L 213.769531 500.335938 C 213.769531 496.648438 212.410156 493.15625 209.882812 490.492188 L 177.753906 455.722656 Z M 177.804688 455.625 " fill-opacity="1" fill-rule="nonzero"/></g><g clip-path="url(#d9380c2eb3)"><path fill="#000000" d="M 213.671875 415.328125 C 207.0625 408.78125 196.273438 408.78125 189.613281 415.328125 C 186.40625 418.527344 184.609375 422.796875 184.609375 427.355469 C 184.609375 431.914062 186.355469 436.132812 189.613281 439.332031 L 213.722656 463.382812 C 214.695312 464.351562 215.910156 464.789062 217.171875 464.789062 C 218.4375 464.789062 219.652344 464.304688 220.625 463.382812 C 222.519531 461.492188 222.519531 458.4375 220.625 456.546875 L 196.515625 432.496094 C 195.15625 431.136719 194.378906 429.292969 194.378906 427.355469 C 194.378906 425.414062 195.15625 423.570312 196.515625 422.214844 C 199.382812 419.449219 204 419.449219 206.820312 422.214844 L 247.597656 462.898438 C 254.015625 469.300781 257.5625 477.835938 257.5625 486.902344 L 257.5625 531.660156 C 257.5625 534.328125 259.75 536.507812 262.421875 536.507812 C 265.097656 536.507812 267.285156 534.328125 267.285156 531.660156 L 267.285156 486.902344 C 267.285156 475.265625 262.714844 464.304688 254.453125 456.0625 L 213.671875 415.378906 Z M 213.671875 415.328125 " fill-opacity="1" fill-rule="nonzero"/></g><g clip-path="url(#07bf1d6b8c)"><path fill="#000000" d="M 422.671875 439.378906 C 425.878906 436.179688 427.679688 431.914062 427.679688 427.355469 C 427.679688 422.796875 425.929688 418.578125 422.671875 415.328125 C 416.0625 408.78125 405.273438 408.78125 398.613281 415.328125 L 357.835938 456.011719 C 349.570312 464.257812 345.003906 475.214844 345.003906 486.851562 L 345.003906 531.609375 C 345.003906 534.277344 347.191406 536.460938 349.863281 536.460938 C 352.535156 536.460938 354.722656 534.277344 354.722656 531.609375 L 354.722656 486.851562 C 354.722656 477.785156 358.273438 469.25 364.6875 462.851562 L 405.417969 422.214844 C 408.285156 419.402344 412.902344 419.402344 415.722656 422.214844 C 417.082031 423.570312 417.859375 425.414062 417.859375 427.355469 C 417.859375 429.292969 417.082031 431.136719 415.722656 432.496094 L 391.613281 456.546875 C 389.71875 458.4375 389.71875 461.492188 391.613281 463.382812 C 392.585938 464.351562 393.800781 464.789062 395.066406 464.789062 C 396.328125 464.789062 397.542969 464.304688 398.515625 463.382812 L 422.625 439.332031 Z M 422.671875 439.378906 " fill-opacity="1" fill-rule="nonzero"/></g><g clip-path="url(#78fd3251e9)"><path fill="#000000" d="M 446.390625 356.558594 C 442.84375 353.355469 438.082031 351.757812 433.21875 352.242188 C 424.664062 353.113281 417.957031 360.824219 417.957031 369.796875 L 417.957031 399.957031 C 417.957031 402.625 420.144531 404.804688 422.820312 404.804688 C 425.492188 404.804688 427.679688 402.625 427.679688 399.957031 L 427.679688 369.796875 C 427.679688 365.722656 430.546875 362.230469 434.191406 361.890625 C 436.28125 361.648438 438.324219 362.328125 439.832031 363.734375 C 441.335938 365.089844 442.210938 367.078125 442.210938 369.117188 L 442.210938 435.839844 C 442.210938 443.164062 439.488281 450.195312 434.484375 455.578125 L 402.355469 490.34375 C 399.878906 493.058594 398.515625 496.550781 398.515625 500.1875 L 398.515625 531.5625 C 398.515625 534.230469 400.703125 536.410156 403.375 536.410156 C 406.050781 536.410156 408.238281 534.230469 408.238281 531.5625 L 408.238281 500.1875 C 408.238281 498.976562 408.675781 497.8125 409.550781 496.890625 L 441.675781 462.121094 C 448.335938 454.945312 451.980469 445.585938 451.980469 435.792969 L 451.980469 369.066406 C 451.980469 364.265625 449.941406 359.710938 446.390625 356.460938 Z M 446.390625 356.558594 " fill-opacity="1" fill-rule="nonzero"/></g></svg>