<svg xmlns="http://www.w3.org/2000/svg" xmlns:xlink="http://www.w3.org/1999/xlink" width="600" zoomAndPan="magnify" viewBox="183 273 245 247" height="600" preserveAspectRatio="xMidYMid meet" version="1.0"><defs><clipPath id="0efc83abf9"><path d="M 183.601562 274.824219 L 428.101562 274.824219 L 428.101562 517.074219 L 183.601562 517.074219 Z M 183.601562 274.824219 " clip-rule="nonzero"/></clipPath><clipPath id="ed6cb51ef1"><path d="M 48.394531 41.953125 L 231.996094 41.953125 L 231.996094 225.554688 L 48.394531 225.554688 Z M 48.394531 41.953125 " clip-rule="nonzero"/></clipPath></defs><rect x="-61.2" width="734.4" fill="#ffffff" y="-79.199999" height="950.399992" fill-opacity="1"/><rect x="-61.2" width="734.4" fill="#1a73e8" y="-79.199999" height="950.399992" fill-opacity="1"/><g clip-path="url(#0efc83abf9)"><path fill="#000000" d="M 334.546875 274.816406 C 358.3125 277.253906 379.71875 287.671875 396.046875 303.347656 C 388.746094 307.875 380.40625 311.546875 371.417969 314.359375 C 362.105469 298.679688 349.488281 285.175781 334.546875 274.816406 Z M 217.570312 344.78125 L 280.425781 344.78125 C 282.390625 344.78125 283.992188 346.386719 283.992188 348.351562 L 283.992188 517.058594 L 266.964844 517.058594 L 266.964844 468.828125 C 266.964844 464.355469 262.917969 460.703125 257.957031 460.703125 L 240.039062 460.703125 C 235.078125 460.703125 231.027344 464.351562 231.027344 468.828125 L 231.027344 517.058594 L 214.003906 517.058594 L 214.003906 348.351562 C 214.003906 346.386719 215.605469 344.78125 217.570312 344.78125 Z M 230.230469 397.039062 C 228.828125 397.039062 227.683594 398.183594 227.683594 399.589844 L 227.683594 410.757812 C 227.683594 412.164062 228.828125 413.308594 230.230469 413.308594 L 241.390625 413.308594 C 242.796875 413.308594 243.9375 412.164062 243.9375 410.757812 L 243.9375 399.589844 C 243.9375 398.183594 242.796875 397.039062 241.390625 397.039062 Z M 230.230469 423.429688 C 228.828125 423.429688 227.683594 424.578125 227.683594 425.980469 L 227.683594 437.148438 C 227.683594 438.554688 228.828125 439.699219 230.230469 439.699219 L 241.390625 439.699219 C 242.796875 439.699219 243.9375 438.554688 243.9375 437.148438 L 243.9375 425.980469 C 243.9375 424.574219 242.796875 423.429688 241.390625 423.429688 Z M 256.601562 423.429688 C 255.199219 423.429688 254.054688 424.578125 254.054688 425.980469 L 254.054688 437.148438 C 254.054688 438.554688 255.199219 439.699219 256.601562 439.699219 L 267.761719 439.699219 C 269.164062 439.699219 270.308594 438.554688 270.308594 437.148438 L 270.308594 425.980469 C 270.308594 424.574219 269.164062 423.429688 267.761719 423.429688 Z M 256.601562 397.039062 C 255.199219 397.039062 254.054688 398.183594 254.054688 399.589844 L 254.054688 410.757812 C 254.054688 412.164062 255.199219 413.308594 256.601562 413.308594 L 267.761719 413.308594 C 269.164062 413.308594 270.308594 412.164062 270.308594 410.757812 L 270.308594 399.589844 C 270.308594 398.183594 269.164062 397.039062 267.761719 397.039062 Z M 230.230469 361.128906 C 228.828125 361.128906 227.683594 362.277344 227.683594 363.679688 L 227.683594 374.246094 C 227.683594 375.648438 228.828125 376.792969 230.230469 376.792969 L 267.761719 376.792969 C 269.167969 376.792969 270.3125 375.648438 270.3125 374.246094 L 270.3125 363.679688 C 270.3125 362.277344 269.167969 361.128906 267.761719 361.128906 Z M 231.421875 329.535156 L 266.574219 329.535156 C 268.539062 329.535156 270.140625 331.140625 270.140625 333.105469 L 270.140625 336.621094 L 227.855469 336.621094 L 227.855469 333.105469 C 227.851562 331.140625 229.457031 329.535156 231.421875 329.535156 Z M 187.167969 430.847656 L 205.847656 430.847656 L 205.847656 517.082031 L 183.601562 517.082031 L 183.601562 434.417969 C 183.601562 432.449219 185.203125 430.847656 187.167969 430.847656 Z M 292.144531 397.816406 L 331.03125 397.816406 C 332.996094 397.816406 334.597656 399.421875 334.597656 401.386719 L 334.597656 410.273438 L 292.144531 410.273438 Z M 334.597656 418.433594 L 334.597656 517.082031 L 292.144531 517.082031 L 292.144531 507.96875 C 292.890625 508.9375 294.0625 509.566406 295.378906 509.566406 C 297.632812 509.566406 299.457031 507.738281 299.457031 505.484375 L 299.457031 418.433594 L 304.476562 418.433594 L 304.476562 505.484375 C 304.476562 507.738281 306.300781 509.566406 308.550781 509.566406 C 310.804688 509.566406 312.628906 507.738281 312.628906 505.484375 L 312.628906 418.433594 L 317.648438 418.433594 L 317.648438 505.484375 C 317.648438 507.738281 319.472656 509.566406 321.722656 509.566406 C 323.976562 509.566406 325.800781 507.738281 325.800781 505.484375 L 325.800781 418.433594 Z M 401.769531 309.296875 C 401.589844 309.460938 401.394531 309.609375 401.183594 309.746094 C 393.527344 314.609375 384.808594 318.566406 375.421875 321.628906 C 383.570312 337.664062 388.394531 355.652344 388.972656 374.671875 L 428.097656 374.671875 C 427.132812 349.609375 417.355469 326.808594 401.769531 309.296875 Z M 428.097656 382.832031 C 427.136719 407.898438 417.351562 430.695312 401.765625 448.210938 C 401.589844 448.046875 401.394531 447.894531 401.183594 447.761719 C 393.527344 442.898438 384.804688 438.9375 375.414062 435.875 C 383.621094 419.65625 388.335938 401.617188 388.960938 382.832031 Z M 396.046875 454.160156 C 388.746094 449.632812 380.414062 445.960938 371.429688 443.148438 C 363.976562 455.746094 354.3125 467.058594 342.75 476.515625 L 342.75 481.515625 C 363.230469 477.75 381.621094 468.007812 396.046875 454.160156 Z M 342.75 465.746094 L 342.75 437.269531 C 349.773438 438.039062 356.664062 439.242188 363.289062 440.875 C 357.652344 450.007812 350.761719 458.382812 342.75 465.746094 Z M 342.75 429.070312 C 351.214844 429.957031 359.523438 431.449219 367.460938 433.539062 C 375.519531 418.105469 380.164062 400.84375 380.804688 382.832031 L 327.855469 382.832031 L 327.855469 389.660156 L 331.03125 389.660156 C 337.496094 389.660156 342.75 394.917969 342.75 401.386719 Z M 319.703125 389.660156 L 292.144531 389.660156 L 292.144531 382.832031 L 319.703125 382.832031 Z M 236.523438 321.378906 C 239.320312 317.121094 242.421875 313.085938 245.792969 309.296875 C 245.96875 309.460938 246.164062 309.609375 246.375 309.746094 C 254.03125 314.605469 262.753906 318.566406 272.140625 321.628906 C 271.984375 321.933594 271.828125 322.242188 271.675781 322.546875 C 270.132812 321.796875 268.402344 321.378906 266.574219 321.378906 L 253.074219 321.378906 L 253.074219 318.265625 C 253.074219 316.011719 251.25 314.1875 248.996094 314.1875 C 246.746094 314.1875 244.921875 316.011719 244.921875 318.265625 L 244.921875 321.378906 Z M 251.515625 303.347656 C 258.816406 307.875 267.152344 311.546875 276.140625 314.359375 C 285.453125 298.679688 298.070312 285.175781 313.011719 274.816406 C 289.246094 277.253906 267.839844 287.671875 251.515625 303.347656 Z M 319.703125 374.671875 L 319.703125 329.378906 C 306.144531 329.078125 292.65625 327.273438 280.097656 323.96875 C 279.21875 325.644531 278.378906 327.34375 277.578125 329.066406 C 278.039062 330.324219 278.292969 331.6875 278.292969 333.105469 L 278.292969 336.625 L 280.425781 336.625 C 286.890625 336.625 292.144531 341.882812 292.144531 348.351562 L 292.144531 374.671875 Z M 319.703125 321.21875 C 307.578125 320.9375 295.542969 319.410156 284.285156 316.632812 C 293.316406 302.050781 305.429688 289.566406 319.703125 280.109375 Z M 327.855469 280.109375 L 327.855469 321.21875 C 339.980469 320.9375 352.015625 319.410156 363.273438 316.632812 C 354.242188 302.050781 342.128906 289.566406 327.855469 280.109375 Z M 327.855469 329.378906 C 341.414062 329.078125 354.902344 327.273438 367.464844 323.96875 C 375.464844 339.222656 380.226562 356.433594 380.820312 374.671875 L 327.855469 374.671875 Z M 327.855469 329.378906 " fill-opacity="1" fill-rule="evenodd"/></g><g clip-path="url(#ed6cb51ef1)"><path fill="#1a73e8" d="M 48.394531 41.953125 L 231.996094 41.953125 L 231.996094 225.554688 L 48.394531 225.554688 Z M 48.394531 41.953125 " fill-opacity="1" fill-rule="nonzero"/></g></svg>