<svg xmlns="http://www.w3.org/2000/svg" xmlns:xlink="http://www.w3.org/1999/xlink" width="816" zoomAndPan="magnify" viewBox="0 0 612 791.999994" height="1056" preserveAspectRatio="xMidYMid meet" version="1.0"><defs><clipPath id="e3a37e26e0"><path d="M 96.757812 188.851562 L 515.257812 188.851562 L 515.257812 602.851562 L 96.757812 602.851562 Z M 96.757812 188.851562 " clip-rule="nonzero"/></clipPath><clipPath id="741a4c7754"><path d="M 428.398438 0 L 612 0 L 612 183.601562 L 428.398438 183.601562 Z M 428.398438 0 " clip-rule="nonzero"/></clipPath></defs><rect x="-61.2" width="734.4" fill="#ffffff" y="-79.199999" height="950.399992" fill-opacity="1"/><rect x="-61.2" width="734.4" fill="#1a73e8" y="-79.199999" height="950.399992" fill-opacity="1"/><g clip-path="url(#e3a37e26e0)"><path fill="#000000" d="M 355.125 188.835938 C 395.808594 193 432.445312 210.804688 460.390625 237.59375 C 447.894531 245.335938 433.621094 251.609375 418.238281 256.414062 C 402.296875 229.621094 380.703125 206.542969 355.125 188.835938 Z M 154.902344 308.40625 L 262.492188 308.40625 C 265.851562 308.40625 268.59375 311.148438 268.59375 314.507812 L 268.59375 602.824219 L 239.453125 602.824219 L 239.453125 520.402344 C 239.453125 512.75 232.523438 506.511719 224.027344 506.511719 L 193.363281 506.511719 C 184.867188 506.511719 177.9375 512.75 177.9375 520.402344 L 177.9375 602.824219 L 148.792969 602.824219 L 148.792969 314.507812 C 148.792969 311.148438 151.539062 308.40625 154.902344 308.40625 Z M 176.574219 397.710938 C 174.171875 397.710938 172.214844 399.667969 172.214844 402.070312 L 172.214844 421.160156 C 172.214844 423.558594 174.171875 425.515625 176.574219 425.515625 L 195.675781 425.515625 C 198.078125 425.515625 200.039062 423.558594 200.039062 421.160156 L 200.039062 402.070312 C 200.039062 399.667969 198.078125 397.710938 195.675781 397.710938 Z M 176.574219 442.816406 C 174.171875 442.816406 172.214844 444.773438 172.214844 447.171875 L 172.214844 466.261719 C 172.214844 468.664062 174.171875 470.617188 176.574219 470.617188 L 195.675781 470.617188 C 198.078125 470.617188 200.039062 468.664062 200.039062 466.261719 L 200.039062 447.171875 C 200.039062 444.773438 198.078125 442.816406 195.675781 442.816406 Z M 221.710938 442.816406 C 219.308594 442.816406 217.351562 444.773438 217.351562 447.171875 L 217.351562 466.261719 C 217.351562 468.664062 219.308594 470.617188 221.710938 470.617188 L 240.816406 470.617188 C 243.21875 470.617188 245.175781 468.664062 245.175781 466.261719 L 245.175781 447.171875 C 245.175781 444.773438 243.214844 442.816406 240.816406 442.816406 Z M 221.710938 397.710938 C 219.308594 397.710938 217.351562 399.667969 217.351562 402.070312 L 217.351562 421.160156 C 217.351562 423.558594 219.308594 425.515625 221.710938 425.515625 L 240.816406 425.515625 C 243.21875 425.515625 245.175781 423.558594 245.175781 421.160156 L 245.175781 402.070312 C 245.175781 399.667969 243.214844 397.710938 240.816406 397.710938 Z M 176.574219 336.347656 C 174.171875 336.347656 172.214844 338.304688 172.214844 340.703125 L 172.214844 358.757812 C 172.214844 361.15625 174.171875 363.113281 176.574219 363.113281 L 240.816406 363.113281 C 243.21875 363.113281 245.175781 361.15625 245.175781 358.757812 L 245.175781 340.703125 C 245.175781 338.304688 243.21875 336.347656 240.816406 336.347656 Z M 178.609375 282.351562 L 238.78125 282.351562 C 242.144531 282.351562 244.886719 285.09375 244.886719 288.453125 L 244.886719 294.464844 L 172.503906 294.464844 L 172.503906 288.453125 C 172.503906 285.09375 175.246094 282.351562 178.609375 282.351562 Z M 102.863281 455.488281 L 134.839844 455.488281 L 134.839844 602.863281 L 96.757812 602.863281 L 96.757812 461.589844 C 96.757812 458.230469 99.5 455.488281 102.863281 455.488281 Z M 282.550781 399.042969 L 349.109375 399.042969 C 352.472656 399.042969 355.214844 401.785156 355.214844 405.144531 L 355.214844 420.328125 L 282.550781 420.328125 Z M 355.214844 434.273438 L 355.214844 602.863281 L 282.550781 602.863281 L 282.550781 587.289062 C 283.824219 588.945312 285.832031 590.015625 288.085938 590.015625 C 291.941406 590.015625 295.066406 586.894531 295.066406 583.046875 L 295.066406 434.273438 L 303.65625 434.273438 L 303.65625 583.046875 C 303.65625 586.894531 306.78125 590.019531 310.632812 590.019531 C 314.488281 590.019531 317.609375 586.898438 317.609375 583.046875 L 317.609375 434.273438 L 326.203125 434.273438 L 326.203125 583.046875 C 326.203125 586.894531 329.324219 590.019531 333.179688 590.019531 C 337.03125 590.019531 340.15625 586.898438 340.15625 583.046875 L 340.15625 434.273438 Z M 470.1875 247.761719 C 469.882812 248.042969 469.546875 248.300781 469.1875 248.53125 C 456.085938 256.839844 441.15625 263.609375 425.089844 268.839844 C 439.042969 296.242188 447.300781 326.984375 448.289062 359.492188 L 515.253906 359.492188 C 513.605469 316.65625 496.867188 277.691406 470.1875 247.761719 Z M 515.257812 373.433594 C 513.609375 416.269531 496.863281 455.230469 470.1875 485.164062 C 469.882812 484.882812 469.546875 484.625 469.1875 484.394531 C 456.082031 476.085938 441.152344 469.316406 425.082031 464.085938 C 439.128906 436.363281 447.199219 405.535156 448.265625 373.433594 Z M 460.390625 495.328125 C 447.898438 487.589844 433.632812 481.320312 418.261719 476.515625 C 405.5 498.042969 388.957031 517.371094 369.171875 533.539062 L 369.171875 542.078125 C 404.226562 535.648438 435.703125 518.996094 460.390625 495.328125 Z M 369.167969 515.132812 L 369.167969 466.464844 C 381.1875 467.78125 392.984375 469.835938 404.324219 472.628906 C 394.679688 488.238281 382.878906 502.546875 369.167969 515.132812 Z M 369.167969 452.453125 C 383.65625 453.972656 397.878906 456.519531 411.46875 460.089844 C 425.257812 433.714844 433.210938 404.214844 434.304688 373.433594 L 343.675781 373.433594 L 343.675781 385.097656 L 349.109375 385.097656 C 360.175781 385.097656 369.167969 394.085938 369.167969 405.144531 Z M 329.71875 385.097656 L 282.550781 385.097656 L 282.550781 373.433594 L 329.71875 373.433594 Z M 187.34375 268.410156 C 192.132812 261.136719 197.4375 254.238281 203.210938 247.761719 C 203.511719 248.042969 203.847656 248.300781 204.210938 248.527344 C 217.3125 256.839844 232.238281 263.609375 248.308594 268.835938 C 248.042969 269.359375 247.777344 269.882812 247.515625 270.410156 C 244.875 269.128906 241.910156 268.410156 238.78125 268.410156 L 215.671875 268.410156 L 215.671875 263.09375 C 215.671875 259.242188 212.550781 256.121094 208.695312 256.121094 C 204.839844 256.121094 201.71875 259.242188 201.71875 263.09375 L 201.71875 268.410156 Z M 213.003906 237.59375 C 225.5 245.335938 239.773438 251.609375 255.15625 256.414062 C 271.097656 229.621094 292.6875 206.542969 318.269531 188.835938 C 277.585938 193 240.945312 210.804688 213.003906 237.59375 Z M 329.71875 359.492188 L 329.71875 282.085938 C 306.511719 281.570312 283.425781 278.488281 261.925781 272.835938 C 260.421875 275.699219 258.984375 278.605469 257.613281 281.546875 C 258.40625 283.703125 258.839844 286.027344 258.839844 288.453125 L 258.839844 294.464844 L 262.492188 294.464844 C 273.554688 294.464844 282.550781 303.453125 282.550781 314.507812 L 282.550781 359.492188 Z M 329.71875 268.136719 C 308.964844 267.660156 288.367188 265.046875 269.09375 260.296875 C 284.554688 235.378906 305.289062 214.046875 329.71875 197.882812 Z M 343.675781 197.882812 L 343.675781 268.136719 C 364.429688 267.660156 385.027344 265.046875 404.300781 260.296875 C 388.839844 235.378906 368.105469 214.046875 343.675781 197.882812 Z M 343.675781 282.085938 C 366.882812 281.570312 389.96875 278.484375 411.46875 272.835938 C 425.164062 298.90625 433.316406 328.320312 434.328125 359.488281 L 343.675781 359.488281 Z M 343.675781 282.085938 " fill-opacity="1" fill-rule="evenodd"/></g><g clip-path="url(#741a4c7754)"><path fill="#1a73e8" d="M 428.398438 0 L 612 0 L 612 183.601562 L 428.398438 183.601562 Z M 428.398438 0 " fill-opacity="1" fill-rule="nonzero"/></g></svg>