<svg xmlns="http://www.w3.org/2000/svg" xmlns:xlink="http://www.w3.org/1999/xlink" width="816" zoomAndPan="magnify" viewBox="183 273 245 247" height="1056" preserveAspectRatio="xMidYMid meet" version="1.0"><defs><clipPath id="f649b7b375"><path d="M 428.398438 0 L 612 0 L 612 183.601562 L 428.398438 183.601562 Z M 428.398438 0 " clip-rule="nonzero"/></clipPath></defs><rect x="-61.2" width="734.4" fill="#ffffff" y="-79.199999" height="950.399992" fill-opacity="1"/><rect x="-61.2" width="734.4" fill="#1a73e8" y="-79.199999" height="950.399992" fill-opacity="1"/><g clip-path="url(#f649b7b375)"><path fill="#1a73e8" d="M 428.398438 0 L 612 0 L 612 183.601562 L 428.398438 183.601562 Z M 428.398438 0 " fill-opacity="1" fill-rule="nonzero"/></g><path fill="#000000" d="M 376.308594 421.621094 C 372.09375 421.621094 368.660156 418.195312 368.660156 413.949219 C 368.660156 409.742188 372.09375 406.273438 376.308594 406.273438 C 380.53125 406.273438 383.960938 409.742188 383.960938 413.949219 C 383.960938 418.195312 380.53125 421.621094 376.308594 421.621094 Z M 376.308594 397.042969 C 367.007812 397.042969 359.441406 404.640625 359.441406 413.949219 C 359.441406 423.296875 367.007812 430.851562 376.308594 430.851562 C 385.613281 430.851562 393.183594 423.296875 393.183594 413.949219 C 393.183594 404.640625 385.613281 397.042969 376.308594 397.042969 Z M 235.386719 406.277344 C 239.601562 406.277344 243.027344 409.742188 243.027344 413.949219 C 243.027344 418.195312 239.601562 421.621094 235.386719 421.621094 C 231.171875 421.621094 227.738281 418.195312 227.738281 413.949219 C 227.738281 409.742188 231.171875 406.277344 235.386719 406.277344 Z M 235.386719 430.851562 C 244.683594 430.851562 252.253906 423.296875 252.253906 413.949219 C 252.253906 404.640625 244.683594 397.046875 235.386719 397.046875 C 226.085938 397.046875 218.515625 404.640625 218.515625 413.949219 C 218.515625 423.296875 226.085938 430.851562 235.386719 430.851562 Z M 345.695312 276.726562 C 347.703125 276.726562 349.476562 275.449219 350.09375 273.535156 L 353.316406 263.523438 L 356.539062 273.535156 C 357.152344 275.449219 358.929688 276.730469 360.933594 276.726562 L 371.425781 276.6875 L 362.929688 282.84375 C 361.304688 284.050781 360.625 286.117188 361.242188 288.023438 L 364.507812 298.035156 L 356.035156 291.839844 C 354.394531 290.648438 352.234375 290.648438 350.597656 291.839844 L 342.125 298.035156 L 345.386719 288.023438 C 346.003906 286.117188 345.332031 284.050781 343.707031 282.84375 L 335.210938 276.6875 Z M 318.230469 275.792969 L 335.574219 288.375 L 328.917969 308.785156 C 327.539062 312.957031 332.375 316.570312 336.023438 313.925781 L 353.316406 301.304688 L 370.613281 313.925781 C 374.246094 316.605469 379.082031 312.945312 377.714844 308.785156 L 371.054688 288.375 L 388.398438 275.792969 C 392.015625 273.179688 390.144531 267.414062 385.683594 267.417969 L 364.28125 267.457031 L 357.699219 247.046875 C 356.332031 242.808594 350.292969 242.808594 348.925781 247.046875 L 342.347656 267.457031 L 320.933594 267.417969 C 316.488281 267.417969 314.613281 273.191406 318.230469 275.792969 Z M 385.34375 455.898438 C 383.589844 457.261719 381.726562 458.78125 379.703125 460.378906 C 361.589844 474.867188 355.230469 501.042969 349.671875 524.214844 C 346.054688 523.515625 342.40625 522.890625 338.714844 522.386719 L 348.355469 493.40625 C 348.398438 493.289062 348.429688 493.171875 348.460938 493.058594 C 355.144531 465.832031 347.652344 445.382812 338.328125 425.285156 C 338.542969 424.699219 338.765625 424.15625 338.984375 423.570312 C 343.042969 426.960938 346.910156 430.035156 350.53125 432.644531 C 359.957031 439.5 367.441406 443.863281 375.589844 444.449219 C 383.4375 444.992188 391.308594 441.992188 401.914062 434.359375 C 406.03125 431.398438 410.015625 428.207031 413.546875 425.167969 C 405.332031 440.046875 399.535156 444.640625 385.34375 455.898438 Z M 294.59375 520.320312 C 294.152344 516.816406 293.84375 510.46875 293.546875 504.234375 C 292.269531 477.945312 290.136719 433.890625 274.0625 403.898438 C 269.917969 396.136719 251.144531 377.714844 248.539062 371.6875 C 249.054688 370.597656 249.441406 370.050781 249.65625 369.820312 C 251.097656 370.246094 254.46875 372.859375 257.207031 375 C 260.707031 377.726562 265.0625 381.078125 270.523438 384.464844 C 291.941406 397.667969 313.359375 398.332031 327.824219 386.257812 C 340.042969 376.246094 348.828125 370.125 353.933594 337.335938 C 354.496094 333.710938 354.984375 329.972656 355.390625 326.195312 L 355.945312 335.074219 C 356.8125 366.585938 349.929688 379.984375 341.226562 396.929688 C 336.519531 406.082031 331.183594 416.441406 326.644531 430.890625 C 318.453125 456.957031 318.070312 489.636719 316.347656 520.320312 C 309.144531 520 301.792969 520.019531 294.59375 520.320312 Z M 231.988281 460.378906 C 229.976562 458.78125 228.101562 457.261719 226.355469 455.898438 C 212.160156 444.640625 206.367188 440.046875 198.152344 425.167969 C 201.675781 428.203125 205.664062 431.398438 209.78125 434.359375 C 220.390625 441.992188 228.261719 444.992188 236.105469 444.445312 C 244.261719 443.863281 251.734375 439.5 261.160156 432.644531 C 264.734375 430.074219 268.546875 427.074219 272.539062 423.6875 C 272.769531 424.347656 272.992188 425.011719 273.203125 425.671875 C 263.972656 445.539062 256.554688 465.832031 263.230469 493.058594 C 263.261719 493.175781 263.300781 493.289062 263.335938 493.40625 L 272.976562 522.386719 C 269.289062 522.890625 265.636719 523.515625 262.027344 524.214844 C 256.464844 501.039062 250.097656 474.867188 231.988281 460.378906 Z M 284.332031 504.703125 C 283.503906 487.601562 282.296875 462.792969 277.066406 439.8125 C 270.820312 455.195312 267.3125 470.777344 272.148438 490.640625 L 282.324219 521.257812 C 283.34375 521.140625 284.367188 521.0625 285.386719 520.945312 C 284.972656 517.4375 284.703125 512.375 284.332031 504.703125 Z M 334.0625 438.449219 C 327.632812 462.316406 327.109375 492.9375 325.550781 520.90625 C 326.828125 520.984375 328.101562 521.101562 329.378906 521.253906 L 339.554688 490.640625 C 344.5 470.308594 340.664062 454.339844 334.0625 438.449219 Z M 424.34375 411.027344 C 421.5 408.925781 417.5625 409.117188 414.960938 411.535156 C 410.511719 415.703125 403.714844 421.699219 396.539062 426.839844 C 379.539062 439.070312 372.984375 437.589844 355.945312 425.164062 C 351.871094 422.207031 347.4375 418.660156 342.757812 414.648438 C 344.960938 409.820312 347.214844 405.457031 349.425781 401.132812 C 358.371094 383.761719 366.089844 368.726562 365.164062 334.839844 C 364.957031 326.285156 364.390625 317.414062 359.757812 313.496094 C 354.894531 309.378906 347.328125 312.445312 346.804688 318.910156 C 346.339844 324.714844 345.667969 330.441406 344.820312 335.890625 C 340.226562 365.441406 333.386719 369.625 321.917969 379.164062 C 310.648438 388.550781 293.238281 387.617188 275.351562 376.59375 C 270.320312 373.480469 266.183594 370.285156 262.859375 367.675781 C 256.722656 362.925781 252.285156 359.457031 247.261719 360.820312 C 243.023438 361.910156 240.875 366.039062 239.628906 369.039062 C 237.542969 374.0625 242.066406 379.90625 254.5625 394.121094 C 259.371094 399.613281 264.34375 405.300781 265.9375 408.261719 C 267.027344 410.285156 268.046875 412.429688 269.007812 414.609375 C 264.289062 418.660156 259.839844 422.207031 255.742188 425.164062 C 238.707031 437.589844 232.152344 439.070312 215.152344 426.839844 C 207.984375 421.699219 201.175781 415.699219 196.734375 411.535156 C 194.136719 409.117188 190.191406 408.925781 187.351562 411.027344 C 184.507812 413.167969 183.59375 417.027344 185.167969 420.179688 C 197.210938 444.5625 203.589844 449.628906 220.628906 463.144531 C 222.371094 464.503906 224.226562 465.984375 226.230469 467.582031 C 241.835938 480.085938 247.804688 504.507812 253.007812 526.164062 C 239.179688 529.511719 226.046875 534.148438 213.933594 540.070312 C 211.648438 541.160156 210.691406 543.964844 211.8125 546.222656 C 212.925781 548.519531 215.6875 549.496094 217.972656 548.367188 C 243.511719 535.902344 273.898438 529.320312 305.84375 529.320312 C 337.792969 529.320312 368.171875 535.902344 393.714844 548.367188 C 395.972656 549.457031 398.730469 548.597656 399.882812 546.222656 C 401 543.964844 400.042969 541.160156 397.757812 540.070312 C 385.648438 534.148438 372.515625 529.511719 358.683594 526.164062 C 363.882812 504.507812 369.859375 480.085938 385.464844 467.582031 C 387.464844 465.984375 389.320312 464.503906 391.058594 463.144531 C 408.101562 449.628906 414.484375 444.5625 426.53125 420.179688 C 428.105469 417.027344 427.183594 413.167969 424.34375 411.027344 Z M 301.835938 345.863281 C 294.394531 345.863281 288.339844 351.902344 288.339844 359.378906 C 288.339844 366.820312 294.394531 372.894531 301.835938 372.894531 C 309.273438 372.894531 315.328125 366.820312 315.328125 359.378906 C 315.328125 351.902344 309.273438 345.863281 301.835938 345.863281 Z M 301.835938 382.125 C 314.363281 382.125 324.550781 371.921875 324.550781 359.378906 C 324.550781 346.800781 314.363281 336.59375 301.835938 336.59375 C 289.308594 336.59375 279.117188 346.800781 279.117188 359.378906 C 279.117188 371.921875 289.308594 382.125 301.835938 382.125 Z M 301.835938 382.125 " fill-opacity="1" fill-rule="evenodd"/></svg>