<svg xmlns="http://www.w3.org/2000/svg" xmlns:xlink="http://www.w3.org/1999/xlink" width="1728" zoomAndPan="magnify" viewBox="540 778 220 172" height="2304" preserveAspectRatio="xMidYMid meet" version="1.0"><defs><clipPath id="87a20e7ee6"><path d="M 673 874 L 735.648438 874 L 735.648438 940.878906 L 673 940.878906 Z M 673 874 " clip-rule="nonzero"/></clipPath><clipPath id="3dfe8024e6"><path d="M 560.148438 874 L 609 874 L 609 939 L 560.148438 939 Z M 560.148438 874 " clip-rule="nonzero"/></clipPath><clipPath id="8488ee8fc1"><path d="M 610 787.128906 L 685 787.128906 L 685 854 L 610 854 Z M 610 787.128906 " clip-rule="nonzero"/></clipPath></defs><path fill="#000000" d="M 584.269531 826.132812 C 594.691406 826.132812 603.105469 834.566406 603.105469 845.035156 C 603.105469 855.503906 594.691406 863.953125 584.269531 863.953125 C 573.859375 863.953125 565.460938 855.503906 565.460938 845.035156 C 565.460938 834.566406 573.859375 826.132812 584.269531 826.132812 Z M 584.269531 821.96875 C 571.597656 821.96875 561.289062 832.324219 561.289062 845.039062 C 561.289062 857.761719 571.597656 868.128906 584.269531 868.128906 C 596.945312 868.128906 607.273438 857.761719 607.273438 845.039062 C 607.273438 832.320312 596.945312 821.96875 584.269531 821.96875 Z M 584.269531 821.96875 " fill-opacity="1" fill-rule="evenodd"/><path fill="#000000" d="M 711.34375 826.132812 C 721.765625 826.132812 730.167969 834.578125 730.167969 845.050781 C 730.167969 855.515625 721.765625 863.941406 711.34375 863.941406 C 700.933594 863.941406 692.535156 855.519531 692.535156 845.050781 C 692.535156 834.578125 700.933594 826.132812 711.34375 826.132812 Z M 711.34375 821.957031 C 698.671875 821.957031 688.363281 832.335938 688.363281 845.050781 C 688.363281 857.761719 698.671875 868.128906 711.34375 868.128906 C 724.03125 868.128906 734.351562 857.761719 734.351562 845.050781 C 734.351562 832.335938 724.03125 821.957031 711.34375 821.957031 Z M 711.34375 821.957031 " fill-opacity="1" fill-rule="evenodd"/><g clip-path="url(#87a20e7ee6)"><path fill="#000000" d="M 711.34375 874.078125 C 697.992188 874.078125 687.171875 884.847656 687.171875 898.136719 L 687.171875 914.78125 C 687.125 915.972656 688.0625 916.957031 689.261719 916.957031 C 690.445312 916.957031 691.398438 915.96875 691.34375 914.78125 L 691.34375 898.136719 C 691.34375 887.101562 700.222656 878.253906 711.34375 878.253906 C 722.480469 878.253906 731.375 887.101562 731.375 898.136719 L 731.375 928.398438 C 731.375 933.035156 727.695312 936.714844 723.054688 936.714844 L 681.609375 936.714844 C 680.320312 936.714844 679.503906 936.234375 678.828125 935.394531 C 678.136719 934.539062 677.699219 933.265625 677.652344 931.953125 C 677.609375 930.640625 677.941406 929.34375 678.609375 928.417969 C 679.277344 927.515625 680.195312 926.894531 681.792969 926.742188 L 709.746094 924.164062 C 712.425781 923.921875 714.480469 922.933594 715.65625 921.308594 C 716.828125 919.683594 716.988281 917.835938 716.988281 916.15625 L 716.988281 896.90625 C 717.035156 895.710938 716.09375 894.71875 714.894531 894.71875 C 713.714844 894.71875 712.761719 895.710938 712.816406 896.90625 L 712.816406 916.15625 C 712.816406 917.5 712.609375 918.386719 712.265625 918.859375 C 711.921875 919.34375 711.3125 919.824219 709.347656 920.007812 L 681.402344 922.585938 C 678.734375 922.839844 676.550781 924.171875 675.242188 925.980469 C 673.921875 927.785156 673.40625 929.984375 673.484375 932.101562 C 673.566406 934.230469 674.230469 936.335938 675.585938 938.015625 C 676.941406 939.695312 679.101562 940.894531 681.609375 940.894531 L 723.054688 940.894531 C 729.941406 940.894531 735.546875 935.277344 735.546875 928.398438 L 735.546875 898.132812 C 735.542969 884.84375 724.707031 874.078125 711.34375 874.078125 Z M 711.34375 874.078125 " fill-opacity="1" fill-rule="evenodd"/></g><g clip-path="url(#3dfe8024e6)"><path fill="#000000" d="M 584.269531 874.078125 C 570.917969 874.078125 560.09375 884.832031 560.09375 898.136719 L 560.09375 936.542969 C 560.09375 937.691406 561.023438 938.625 562.171875 938.625 L 576.960938 938.625 C 578.121094 938.632812 579.078125 937.703125 579.078125 936.542969 C 579.078125 935.371094 578.121094 934.4375 576.960938 934.449219 L 564.25 934.449219 L 564.25 898.132812 C 564.25 887.097656 573.136719 878.25 584.269531 878.25 C 595.402344 878.25 604.289062 887.097656 604.289062 898.132812 L 604.289062 906.648438 C 604.277344 907.808594 605.203125 908.761719 606.378906 908.761719 C 607.535156 908.761719 608.472656 907.808594 608.460938 906.648438 L 608.460938 898.132812 C 608.457031 884.832031 597.621094 874.078125 584.269531 874.078125 Z M 584.269531 874.078125 " fill-opacity="1" fill-rule="evenodd"/></g><path fill="#000000" d="M 623.394531 881.417969 C 622.347656 881.417969 621.464844 882.175781 621.324219 883.214844 L 619.269531 897.46875 C 618.875 900.230469 623.011719 900.816406 623.402344 898.054688 L 625.199219 885.59375 L 647.605469 885.59375 L 640.839844 932.566406 L 618.421875 932.566406 L 619.347656 926.164062 L 632.980469 918.292969 C 635.148438 917.039062 636.425781 914.941406 636.757812 912.816406 C 637.101562 910.691406 636.632812 908.535156 635.632812 906.664062 C 634.644531 904.796875 633.09375 903.152344 631.046875 902.246094 C 629.015625 901.324219 626.472656 901.234375 624.027344 902.3125 L 602.101562 912 C 600.296875 912.804688 599.492188 912.699219 598.949219 912.460938 C 598.425781 912.21875 597.835938 911.574219 597.171875 910.425781 L 589.058594 896.230469 C 588.496094 895.226562 587.230469 894.859375 586.230469 895.421875 C 585.207031 895.988281 584.851562 897.289062 585.441406 898.300781 L 593.5625 912.496094 C 594.390625 913.945312 595.457031 915.464844 597.273438 916.269531 C 599.101562 917.089844 601.355469 916.902344 603.789062 915.820312 L 625.714844 906.132812 C 627.183594 905.476562 628.3125 905.589844 629.355469 906.054688 C 630.40625 906.527344 631.34375 907.46875 631.953125 908.621094 C 632.5625 909.769531 632.804688 911.085938 632.632812 912.152344 C 632.457031 913.210938 632 914.03125 630.894531 914.671875 L 598.570312 933.34375 C 594.550781 935.667969 589.53125 934.324219 587.21875 930.308594 L 573.601562 906.570312 C 573.042969 905.550781 571.742188 905.195312 570.734375 905.78125 C 569.71875 906.367188 569.390625 907.664062 569.984375 908.667969 L 583.589844 932.378906 C 587.015625 938.351562 594.703125 940.414062 600.664062 936.972656 L 614.761719 928.824219 L 613.960938 934.371094 C 613.785156 935.628906 614.75 936.753906 616.019531 936.753906 L 642.640625 936.753906 C 643.671875 936.753906 644.546875 935.984375 644.699219 934.957031 L 652.074219 883.820312 C 652.257812 882.550781 651.28125 881.425781 650.007812 881.425781 L 623.394531 881.425781 Z M 623.394531 881.417969 " fill-opacity="1" fill-rule="evenodd"/><g clip-path="url(#8488ee8fc1)"><path fill="#000000" d="M 622.582031 791.386719 L 672.988281 791.386719 C 677.242188 791.386719 680.621094 794.765625 680.621094 799.070312 L 680.621094 825.933594 C 680.621094 830.238281 677.242188 833.621094 672.988281 833.621094 L 666.242188 833.621094 C 665.09375 833.621094 664.152344 834.550781 664.152344 835.703125 L 664.152344 848.210938 C 664.152344 849.074219 663.667969 849.53125 663.117188 849.683594 C 662.566406 849.835938 661.925781 849.855469 661.128906 848.464844 L 653.257812 834.667969 C 652.890625 834.011719 652.203125 833.621094 651.457031 833.621094 L 622.59375 833.621094 C 618.324219 833.621094 614.964844 830.238281 614.964844 825.933594 L 614.964844 799.070312 C 614.964844 794.765625 618.316406 791.386719 622.582031 791.386719 Z M 622.582031 787.210938 C 616.078125 787.210938 610.789062 792.539062 610.789062 799.074219 L 610.789062 825.9375 C 610.789062 832.472656 616.089844 837.800781 622.59375 837.800781 L 650.25 837.800781 L 657.511719 850.539062 C 659.027344 853.195312 661.855469 854.359375 664.1875 853.726562 C 666.519531 853.105469 668.324219 850.894531 668.324219 848.214844 L 668.324219 837.804688 L 672.988281 837.804688 C 679.492188 837.804688 684.792969 832.476562 684.792969 825.9375 L 684.792969 799.070312 C 684.792969 792.535156 679.496094 787.207031 672.988281 787.207031 L 622.582031 787.207031 Z M 622.582031 787.210938 " fill-opacity="1" fill-rule="evenodd"/></g></svg>