<svg xmlns="http://www.w3.org/2000/svg" xmlns:xlink="http://www.w3.org/1999/xlink" width="1728" zoomAndPan="magnify" viewBox="616 824 65 80.464844" height="2304" preserveAspectRatio="xMidYMid meet" version="1.0"><defs><clipPath id="ab7b04d503"><path d="M 612.066406 828.066406 L 684 828.066406 L 684 900 L 612.066406 900 Z M 612.066406 828.066406 " clip-rule="nonzero"/></clipPath></defs><g clip-path="url(#ab7b04d503)"><path fill="#196fd2" d="M 683.925781 888.996094 C 683.925781 895.027344 679.035156 899.917969 673.003906 899.917969 L 622.988281 899.917969 C 616.957031 899.917969 612.066406 895.027344 612.066406 888.996094 L 612.066406 838.980469 C 612.066406 832.949219 616.957031 828.058594 622.988281 828.058594 L 673.003906 828.058594 C 679.035156 828.058594 683.925781 832.949219 683.925781 838.980469 Z M 683.925781 888.996094 " fill-opacity="1" fill-rule="nonzero"/></g><path fill="#000000" d="M 640.480469 853.695312 C 640.480469 854.050781 640.445312 854.398438 640.378906 854.742188 C 640.308594 855.089844 640.207031 855.425781 640.074219 855.75 C 639.9375 856.078125 639.773438 856.386719 639.578125 856.679688 C 639.378906 856.972656 639.160156 857.242188 638.910156 857.492188 C 638.660156 857.742188 638.386719 857.964844 638.09375 858.160156 C 637.800781 858.355469 637.492188 858.519531 637.167969 858.65625 C 636.84375 858.792969 636.507812 858.894531 636.160156 858.960938 C 635.816406 859.03125 635.464844 859.066406 635.113281 859.066406 C 634.761719 859.066406 634.410156 859.03125 634.066406 858.960938 C 633.71875 858.894531 633.382812 858.792969 633.058594 858.65625 C 632.734375 858.519531 632.425781 858.355469 632.132812 858.160156 C 631.839844 857.964844 631.566406 857.742188 631.316406 857.492188 C 631.066406 857.242188 630.847656 856.972656 630.648438 856.679688 C 630.453125 856.386719 630.289062 856.078125 630.152344 855.75 C 630.019531 855.425781 629.917969 855.089844 629.847656 854.742188 C 629.78125 854.398438 629.746094 854.050781 629.746094 853.695312 C 629.746094 853.34375 629.78125 852.996094 629.847656 852.648438 C 629.917969 852.304688 630.019531 851.96875 630.152344 851.644531 C 630.289062 851.316406 630.453125 851.007812 630.648438 850.714844 C 630.847656 850.421875 631.066406 850.148438 631.316406 849.902344 C 631.566406 849.652344 631.839844 849.429688 632.132812 849.234375 C 632.425781 849.039062 632.734375 848.871094 633.058594 848.738281 C 633.382812 848.601562 633.71875 848.5 634.066406 848.433594 C 634.410156 848.363281 634.761719 848.328125 635.113281 848.328125 C 635.464844 848.328125 635.816406 848.363281 636.160156 848.433594 C 636.507812 848.5 636.84375 848.601562 637.167969 848.738281 C 637.492188 848.871094 637.800781 849.039062 638.09375 849.234375 C 638.386719 849.429688 638.660156 849.652344 638.910156 849.902344 C 639.160156 850.148438 639.378906 850.421875 639.578125 850.714844 C 639.773438 851.007812 639.9375 851.316406 640.074219 851.644531 C 640.207031 851.96875 640.308594 852.304688 640.378906 852.648438 C 640.445312 852.996094 640.480469 853.34375 640.480469 853.695312 Z M 640.480469 853.695312 " fill-opacity="1" fill-rule="nonzero"/><path fill="#000000" d="M 630.484375 863.023438 L 639.707031 863.023438 L 639.707031 892.6875 L 630.484375 892.6875 Z M 630.484375 863.023438 " fill-opacity="1" fill-rule="nonzero"/><path fill="#000000" d="M 645.507812 863.023438 L 654.285156 863.023438 L 654.285156 892.6875 L 645.507812 892.6875 Z M 645.507812 863.023438 " fill-opacity="1" fill-rule="nonzero"/><path fill="#000000" d="M 645.886719 878.816406 L 654.664062 878.816406 L 654.664062 892.6875 L 645.886719 892.6875 Z M 645.886719 878.816406 " fill-opacity="1" fill-rule="nonzero"/><path fill="#000000" d="M 654.664062 878.816406 C 654.664062 878.816406 654.527344 874.96875 655.542969 872.96875 C 655.542969 872.96875 656.558594 870.503906 659.746094 870.492188 C 659.746094 870.492188 663.488281 869.835938 664.558594 873.550781 C 664.558594 873.550781 664.964844 875.609375 664.964844 876.476562 C 664.964844 877.347656 664.996094 892.6875 664.996094 892.6875 L 674.1875 892.6875 L 674.1875 875.695312 C 674.1875 875.695312 674.855469 866.097656 669.09375 863.464844 C 669.09375 863.464844 659.621094 859.214844 654.480469 867.023438 C 654.480469 867.023438 653.355469 867.796875 653.203125 865.632812 C 653.046875 863.464844 651.734375 868.957031 651.695312 869.074219 C 651.65625 869.191406 653.203125 880.015625 653.203125 880.015625 Z M 654.664062 878.816406 " fill-opacity="1" fill-rule="nonzero"/></svg>