<svg xmlns="http://www.w3.org/2000/svg" xmlns:xlink="http://www.w3.org/1999/xlink" width="1728" zoomAndPan="magnify" viewBox="616 824 65 80.464844" height="2304" preserveAspectRatio="xMidYMid meet" version="1.0"><defs><clipPath id="cd6487e530"><path d="M 607.015625 826 L 688.765625 826 L 688.765625 902.382812 L 607.015625 902.382812 Z M 607.015625 826 " clip-rule="nonzero"/></clipPath></defs><g clip-path="url(#cd6487e530)"><path fill="#000000" d="M 675.308594 880.320312 C 675.644531 879.644531 676.460938 879.375 677.132812 879.714844 C 677.800781 880.054688 678.070312 880.875 677.730469 881.546875 C 677.074219 882.859375 676.390625 884.046875 675.574219 885.292969 C 675.164062 885.921875 674.324219 886.097656 673.699219 885.683594 C 673.074219 885.269531 672.902344 884.425781 673.3125 883.796875 C 674.019531 882.714844 674.71875 881.5 675.308594 880.320312 Z M 627.019531 867.066406 C 627.019531 862.523438 621.53125 860.234375 618.335938 863.449219 C 615.140625 866.664062 617.414062 872.1875 621.933594 872.1875 C 624.742188 872.1875 627.019531 869.894531 627.019531 867.066406 Z M 634.890625 860.597656 C 638.085938 863.8125 643.578125 861.523438 643.578125 856.976562 C 643.578125 852.429688 638.085938 850.140625 634.890625 853.355469 C 632.90625 855.355469 632.90625 858.597656 634.890625 860.597656 Z M 631.011719 875.984375 C 629.867188 874.832031 628.507812 873.894531 627.003906 873.242188 C 629.234375 869.527344 632.277344 866.691406 636.21875 864.875 L 636.519531 864.738281 C 637.148438 864.898438 637.808594 864.984375 638.488281 864.984375 C 640.6875 864.984375 642.675781 864.089844 644.117188 862.640625 C 644.722656 862.03125 645.230469 861.324219 645.613281 860.546875 L 666.554688 850.898438 L 666.761719 851.652344 C 666.929688 852.722656 663.269531 854.804688 662.453125 855.605469 C 662.214844 855.78125 662.703125 857.734375 661.746094 858.335938 C 661.417969 858.539062 660.003906 857.964844 659.59375 857.980469 C 659.589844 857.980469 657.09375 859.203125 656.328125 859.835938 C 653.386719 862.25 648.285156 867.296875 647.964844 867.546875 C 646.253906 868.902344 644.703125 870.414062 644.703125 872.773438 L 644.703125 895.164062 L 634.785156 895.164062 L 634.785156 885.117188 C 634.785156 881.5625 633.339844 878.328125 631.011719 875.984375 Z M 631.914062 885.117188 C 631.914062 879.597656 627.417969 875.078125 621.933594 875.078125 C 616.445312 875.078125 611.953125 879.597656 611.953125 885.117188 L 611.953125 895.164062 L 631.914062 895.164062 Z M 678.875 836.519531 C 678.445312 835.171875 676.546875 835.171875 676.117188 836.519531 L 674.425781 841.789062 C 674.324219 842.097656 674.054688 842.296875 673.730469 842.296875 L 668.226562 842.285156 C 666.820312 842.28125 666.238281 844.097656 667.375 844.925781 L 671.832031 848.171875 C 672.097656 848.363281 672.199219 848.683594 672.097656 848.992188 L 670.386719 854.253906 C 669.949219 855.597656 671.484375 856.722656 672.621094 855.886719 L 677.066406 852.625 C 677.324219 852.433594 677.664062 852.433594 677.925781 852.625 L 682.371094 855.886719 C 683.507812 856.722656 685.039062 855.597656 684.605469 854.257812 L 682.894531 848.992188 C 682.792969 848.683594 682.894531 848.363281 683.15625 848.171875 L 687.617188 844.925781 C 688.753906 844.097656 688.171875 842.28125 686.765625 842.285156 L 681.261719 842.296875 C 680.9375 842.296875 680.664062 842.097656 680.566406 841.789062 Z M 642.664062 830.375 C 641.917969 830.417969 641.277344 829.839844 641.234375 829.085938 C 641.195312 828.332031 641.765625 827.691406 642.515625 827.648438 C 644.027344 827.5625 645.300781 827.5625 646.8125 827.648438 C 647.558594 827.691406 648.132812 828.332031 648.09375 829.085938 C 648.050781 829.839844 647.410156 830.417969 646.664062 830.375 C 645.316406 830.300781 644.011719 830.300781 642.664062 830.375 Z M 625.515625 836.070312 C 624.890625 836.484375 624.050781 836.308594 623.640625 835.679688 C 623.230469 835.050781 623.402344 834.207031 624.027344 833.792969 C 625.265625 832.972656 626.449219 832.28125 627.75 831.621094 C 628.417969 831.28125 629.234375 831.554688 629.574219 832.226562 C 629.910156 832.898438 629.640625 833.71875 628.972656 834.058594 C 627.800781 834.65625 626.589844 835.359375 625.515625 836.070312 Z M 618.625 842.0625 C 618.125 842.625 617.265625 842.675781 616.703125 842.175781 C 616.144531 841.671875 616.09375 840.808594 616.59375 840.242188 C 617.5625 839.148438 618.550781 838.15625 619.636719 837.179688 C 620.199219 836.679688 621.058594 836.730469 621.554688 837.292969 C 622.054688 837.855469 622.003906 838.722656 621.445312 839.222656 C 620.484375 840.085938 619.480469 841.09375 618.625 842.0625 Z M 613.492188 849.636719 C 613.15625 850.308594 612.339844 850.578125 611.667969 850.238281 C 611 849.902344 610.730469 849.078125 611.070312 848.40625 C 611.726562 847.097656 612.410156 845.90625 613.226562 844.660156 C 613.636719 844.03125 614.476562 843.855469 615.101562 844.269531 C 615.726562 844.683594 615.898438 845.527344 615.488281 846.15625 C 614.78125 847.238281 614.082031 848.457031 613.492188 849.636719 Z M 610.492188 858.285156 C 610.34375 859.023438 609.625 859.5 608.890625 859.347656 C 608.160156 859.199219 607.683594 858.476562 607.835938 857.738281 C 608.128906 856.292969 608.496094 854.917969 608.945312 853.554688 C 609.179688 852.835938 609.949219 852.445312 610.660156 852.683594 C 611.375 852.917969 611.761719 853.691406 611.527344 854.410156 C 611.113281 855.679688 610.753906 857.007812 610.492188 858.285156 Z M 609.828125 867.433594 C 609.871094 868.1875 609.296875 868.832031 608.546875 868.871094 C 607.800781 868.914062 607.160156 868.335938 607.117188 867.585938 C 607.035156 866.039062 607.035156 864.804688 607.117188 863.261719 C 607.160156 862.507812 607.800781 861.933594 608.546875 861.972656 C 609.296875 862.015625 609.871094 862.660156 609.828125 863.410156 C 609.757812 864.6875 609.757812 866.160156 609.828125 867.433594 Z M 611.527344 876.4375 C 611.761719 877.152344 611.375 877.925781 610.660156 878.164062 C 609.949219 878.398438 609.179688 878.007812 608.945312 877.292969 C 608.496094 875.925781 608.128906 874.558594 607.835938 873.105469 C 607.683594 872.367188 608.160156 871.648438 608.890625 871.496094 C 609.625 871.347656 610.34375 871.824219 610.492188 872.5625 C 610.75 873.824219 611.117188 875.183594 611.527344 876.4375 Z M 652.429688 830.859375 C 651.699219 830.675781 651.257812 829.933594 651.441406 829.199219 C 651.621094 828.46875 652.359375 828.023438 653.085938 828.207031 C 655.007812 828.691406 656.886719 829.296875 658.707031 830.023438 L 657.605469 828.136719 C 657.226562 827.488281 657.445312 826.652344 658.089844 826.269531 C 658.734375 825.890625 659.566406 826.105469 659.945312 826.757812 L 663.171875 832.285156 C 663.742188 833.1875 663.207031 834.222656 662.304688 834.394531 L 655.957031 835.632812 C 655.222656 835.773438 654.511719 835.289062 654.371094 834.546875 C 654.230469 833.804688 654.710938 833.089844 655.449219 832.949219 L 657.617188 832.523438 C 655.941406 831.863281 654.222656 831.308594 652.429688 830.859375 Z M 633.71875 832.082031 C 633.003906 832.320312 632.234375 831.929688 632 831.210938 C 631.765625 830.496094 632.152344 829.722656 632.867188 829.484375 C 634.222656 829.035156 635.585938 828.667969 637.027344 828.367188 C 637.761719 828.21875 638.476562 828.695312 638.625 829.433594 C 638.777344 830.171875 638.300781 830.890625 637.570312 831.042969 C 636.316406 831.300781 634.964844 831.667969 633.71875 832.082031 Z M 680.34375 876.449219 C 680.070312 877.152344 679.28125 877.496094 678.582031 877.21875 C 677.882812 876.941406 677.539062 876.144531 677.816406 875.441406 C 678.496094 873.707031 679.054688 871.984375 679.496094 870.21875 L 677.882812 871.753906 C 677.339844 872.269531 676.484375 872.246094 675.96875 871.699219 C 675.457031 871.152344 675.480469 870.292969 676.023438 869.777344 L 680.636719 865.386719 C 681.382812 864.609375 682.539062 864.851562 682.929688 865.84375 L 685.507812 871.6875 C 685.8125 872.375 685.503906 873.179688 684.820312 873.484375 C 684.136719 873.789062 683.335938 873.476562 683.035156 872.789062 L 682.152344 870.792969 C 681.679688 872.707031 681.074219 874.59375 680.34375 876.449219 Z M 637.042969 898.914062 C 637.777344 899.0625 638.25 899.785156 638.101562 900.523438 C 637.949219 901.261719 637.234375 901.734375 636.5 901.585938 C 635.058594 901.289062 633.695312 900.917969 632.339844 900.46875 C 631.628906 900.234375 631.238281 899.460938 631.472656 898.742188 C 631.710938 898.023438 632.476562 897.632812 633.191406 897.871094 C 634.453125 898.289062 635.773438 898.648438 637.042969 898.914062 Z M 646.136719 899.578125 C 646.882812 899.539062 647.523438 900.113281 647.566406 900.867188 C 647.605469 901.621094 647.035156 902.265625 646.285156 902.304688 C 644.75 902.390625 643.523438 902.390625 641.988281 902.304688 C 641.242188 902.265625 640.667969 901.621094 640.707031 900.867188 C 640.75 900.113281 641.390625 899.539062 642.136719 899.578125 C 643.402344 899.648438 644.871094 899.652344 646.136719 899.578125 Z M 655.082031 897.871094 C 655.796875 897.632812 656.566406 898.023438 656.800781 898.742188 C 657.035156 899.460938 656.648438 900.234375 655.933594 900.46875 C 654.578125 900.917969 653.214844 901.289062 651.773438 901.585938 C 651.039062 901.734375 650.324219 901.261719 650.175781 900.523438 C 650.023438 899.785156 650.496094 899.0625 651.230469 898.914062 C 652.484375 898.652344 653.835938 898.285156 655.082031 897.871094 Z M 663.285156 893.882812 C 662.210938 894.59375 661 895.300781 659.828125 895.894531 C 659.160156 896.234375 658.890625 897.054688 659.226562 897.726562 C 659.566406 898.402344 660.382812 898.671875 661.050781 898.332031 C 662.351562 897.671875 663.535156 896.980469 664.773438 896.160156 C 665.398438 895.75 665.570312 894.902344 665.160156 894.273438 C 664.75 893.644531 663.910156 893.472656 663.285156 893.882812 Z M 670.175781 887.894531 C 669.320312 888.859375 668.316406 889.867188 667.355469 890.730469 C 666.796875 891.234375 666.746094 892.097656 667.246094 892.660156 C 667.742188 893.226562 668.601562 893.273438 669.164062 892.773438 C 670.25 891.796875 671.238281 890.804688 672.207031 889.710938 C 672.707031 889.148438 672.65625 888.28125 672.09375 887.78125 C 671.535156 887.277344 670.675781 887.328125 670.175781 887.894531 Z M 670.175781 887.894531 " fill-opacity="1" fill-rule="evenodd"/></g></svg>