<svg xmlns="http://www.w3.org/2000/svg" xmlns:xlink="http://www.w3.org/1999/xlink" width="1728" zoomAndPan="magnify" viewBox="616 824 65 80.464844" height="2304" preserveAspectRatio="xMidYMid meet" version="1.0"><defs><clipPath id="aa27d25e58"><path d="M 616 824 L 681 824 L 681 904.464844 L 616 904.464844 Z M 616 824 " clip-rule="nonzero"/></clipPath></defs><g clip-path="url(#aa27d25e58)"><path fill="#000000" d="M 680.867188 840.355469 C 680.867188 836.414062 679.355469 832.433594 676.335938 829.417969 C 671.007812 824.054688 662.699219 823.464844 656.660156 827.574219 C 655.566406 827.40625 654.433594 827.742188 653.597656 828.578125 C 652.757812 829.417969 652.421875 830.546875 652.589844 831.636719 C 650.910156 834.066406 649.988281 836.875 649.902344 839.851562 L 618.980469 874.925781 C 618.5625 875.386719 618.605469 876.097656 619.023438 876.558594 L 620.871094 878.402344 L 618.4375 882.214844 C 618.144531 882.675781 618.183594 883.304688 618.605469 883.683594 L 619.402344 884.476562 C 615.164062 889.085938 615.246094 896.335938 619.738281 900.820312 L 619.90625 900.988281 C 622.128906 903.210938 625.109375 904.464844 628.296875 904.464844 C 631.441406 904.464844 634.421875 903.25 636.644531 900.988281 L 656.113281 881.546875 C 657.5 880.164062 659.765625 880.164062 661.191406 881.546875 C 661.863281 882.214844 662.238281 883.136719 662.238281 884.058594 C 662.238281 885.023438 661.863281 885.902344 661.191406 886.574219 L 649.402344 898.347656 C 648.9375 898.808594 648.9375 899.5625 649.402344 900.023438 C 649.863281 900.484375 650.617188 900.484375 651.078125 900.023438 L 662.867188 888.25 C 664 887.117188 664.628906 885.609375 664.628906 884.058594 C 664.628906 882.46875 664 880.957031 662.867188 879.867188 C 661.734375 878.738281 660.265625 878.109375 658.671875 878.109375 C 657.078125 878.109375 655.566406 878.738281 654.476562 879.867188 L 635.007812 899.3125 C 633.207031 901.113281 630.855469 902.078125 628.339844 902.078125 C 625.820312 902.078125 623.429688 901.113281 621.667969 899.3125 L 621.5 899.144531 C 617.933594 895.582031 617.847656 889.882812 621.164062 886.15625 L 622.042969 887.035156 C 622.253906 887.242188 622.589844 887.371094 622.882812 887.371094 C 623.09375 887.371094 623.34375 887.328125 623.511719 887.203125 L 627.332031 884.773438 L 629.175781 886.617188 C 629.429688 886.867188 629.722656 886.949219 630.015625 886.949219 C 630.308594 886.949219 630.5625 886.867188 630.8125 886.65625 L 665.929688 855.730469 C 668.910156 855.648438 671.722656 854.726562 674.15625 853.050781 C 674.324219 853.09375 674.53125 853.09375 674.699219 853.09375 C 675.664062 853.09375 676.546875 852.714844 677.21875 852.042969 C 677.890625 851.375 678.265625 850.496094 678.265625 849.53125 C 678.265625 849.363281 678.222656 849.152344 678.222656 848.984375 C 679.988281 846.429688 680.867188 843.414062 680.867188 840.355469 Z M 655.273438 830.253906 C 655.527344 830.003906 655.820312 829.917969 656.113281 829.917969 C 656.40625 829.917969 656.742188 830.046875 656.953125 830.253906 L 675.496094 848.777344 C 675.707031 848.984375 675.832031 849.320312 675.832031 849.613281 C 675.832031 849.949219 675.707031 850.242188 675.496094 850.453125 C 675.035156 850.914062 674.28125 850.914062 673.820312 850.453125 L 655.273438 831.929688 C 654.8125 831.46875 654.8125 830.714844 655.273438 830.253906 Z M 670.335938 828.203125 C 671.929688 828.832031 673.398438 829.792969 674.660156 831.09375 C 678.894531 835.324219 679.609375 841.738281 676.839844 846.722656 L 659.007812 828.914062 C 660.980469 827.824219 663.164062 827.238281 665.386719 827.238281 C 667.0625 827.28125 668.742188 827.574219 670.335938 828.203125 Z M 653.933594 833.984375 L 671.761719 851.792969 C 669.832031 852.882812 667.652344 853.46875 665.386719 853.46875 C 661.863281 853.46875 658.589844 852.128906 656.113281 849.613281 C 653.636719 847.140625 652.253906 843.875 652.253906 840.355469 C 652.296875 838.089844 652.882812 835.910156 653.933594 833.984375 Z M 658.296875 859.335938 C 657.371094 859.167969 654.6875 858.332031 651.035156 854.683594 C 647.386719 851.039062 646.546875 848.398438 646.378906 847.433594 L 650.113281 843.203125 C 650.699219 846.261719 652.167969 849.070312 654.433594 851.289062 C 656.699219 853.554688 659.511719 854.976562 662.574219 855.566406 Z M 622.96875 884.730469 L 620.953125 882.71875 L 622.589844 880.164062 L 625.527344 883.09375 Z M 630.058594 884.183594 L 621.542969 875.679688 L 644.574219 849.53125 C 645.203125 851.164062 646.546875 853.511719 649.402344 856.359375 C 652.253906 859.210938 654.601562 860.550781 656.238281 861.179688 Z M 630.058594 884.183594 " fill-opacity="1" fill-rule="nonzero"/></g></svg>