<svg xmlns="http://www.w3.org/2000/svg" xmlns:xlink="http://www.w3.org/1999/xlink" width="816" zoomAndPan="magnify" viewBox="183 273 245 247" height="1056" preserveAspectRatio="xMidYMid meet" version="1.0"><defs><clipPath id="20889c9170"><path d="M 428.398438 0 L 612 0 L 612 183.601562 L 428.398438 183.601562 Z M 428.398438 0 " clip-rule="nonzero"/></clipPath><clipPath id="b82d38fb04"><path d="M 160.992188 264 L 451.242188 264 L 451.242188 528.820312 L 160.992188 528.820312 Z M 160.992188 264 " clip-rule="nonzero"/></clipPath></defs><rect x="-61.2" width="734.4" fill="#ffffff" y="-79.199999" height="950.399992" fill-opacity="1"/><rect x="-61.2" width="734.4" fill="#1a73e8" y="-79.199999" height="950.399992" fill-opacity="1"/><g clip-path="url(#20889c9170)"><path fill="#1a73e8" d="M 428.398438 0 L 612 0 L 612 183.601562 L 428.398438 183.601562 Z M 428.398438 0 " fill-opacity="1" fill-rule="nonzero"/></g><g clip-path="url(#b82d38fb04)"><path fill="#000000" d="M 414.101562 328.710938 C 406.878906 328.710938 400.152344 330.816406 394.441406 334.398438 L 376.367188 309.355469 C 381.746094 304.621094 385.214844 297.773438 385.214844 290.0625 C 385.214844 275.839844 373.636719 264.261719 359.40625 264.261719 C 345.175781 264.261719 333.597656 275.839844 333.597656 290.0625 C 333.597656 300.386719 339.734375 309.246094 348.515625 313.367188 L 341.335938 333.570312 L 309.332031 319.855469 C 310.730469 315.90625 311.476562 311.777344 311.476562 307.53125 C 311.476562 287.0625 294.816406 270.40625 274.335938 270.40625 C 253.855469 270.40625 237.191406 287.0625 237.191406 307.53125 C 237.191406 312.613281 238.222656 317.453125 240.078125 321.867188 L 208.621094 337.554688 C 204.054688 330.273438 196.015625 325.382812 186.800781 325.382812 C 172.570312 325.382812 160.992188 336.960938 160.992188 351.183594 C 160.992188 365.410156 172.570312 376.980469 186.800781 376.980469 C 187.695312 376.980469 188.542969 376.808594 189.414062 376.71875 L 195.441406 406.816406 C 179.65625 411.09375 167.992188 425.5 167.992188 442.617188 C 167.992188 463.089844 184.65625 479.746094 205.128906 479.746094 C 215.628906 479.746094 225.101562 475.347656 231.863281 468.324219 L 255.171875 487.933594 C 252.289062 492.097656 250.578125 497.128906 250.578125 502.566406 C 250.578125 516.792969 262.15625 528.367188 276.386719 528.367188 C 290.617188 528.367188 302.1875 516.792969 302.1875 502.566406 C 302.1875 492.882812 296.761719 484.527344 288.84375 480.117188 L 299.019531 456.765625 C 304.644531 458.90625 310.71875 460.128906 317.085938 460.128906 C 345.214844 460.128906 368.101562 437.25 368.101562 409.128906 C 368.101562 402.847656 366.90625 396.851562 364.820312 391.289062 L 381.753906 384.011719 C 387.179688 393.628906 396.765625 400.570312 408.058594 402.429688 L 405.253906 431.148438 C 405.242188 431.148438 405.230469 431.144531 405.214844 431.144531 C 390.984375 431.144531 379.40625 442.714844 379.40625 456.941406 C 379.40625 471.167969 390.984375 482.742188 405.214844 482.742188 C 419.445312 482.742188 431.019531 471.167969 431.019531 456.941406 C 431.019531 444.40625 422.023438 433.957031 410.152344 431.644531 L 412.957031 402.910156 C 413.339844 402.921875 413.714844 402.96875 414.101562 402.96875 C 434.582031 402.96875 451.242188 386.3125 451.242188 365.835938 C 451.242188 345.367188 434.582031 328.710938 414.101562 328.710938 Z M 393.105469 473.890625 C 395.214844 471.472656 398.332031 469.25 400.402344 468.832031 C 402.390625 468.433594 403.90625 467.015625 404.351562 465.171875 C 404.5 464.585938 404.527344 463.808594 404.574219 462.292969 C 404.601562 461.511719 404.25 460.761719 403.628906 460.28125 C 402.332031 459.269531 401.199219 457.636719 400.59375 455.917969 C 400.382812 455.316406 399.960938 454.84375 399.429688 454.558594 C 399.417969 454.484375 399.402344 454.402344 399.386719 454.324219 C 399.816406 453.863281 400.070312 453.242188 400.070312 452.585938 C 400.058594 449.757812 400.054688 447.3125 401.09375 446.269531 C 401.773438 445.585938 403.148438 445.238281 405.25 445.234375 C 407.277344 445.238281 408.648438 445.585938 409.332031 446.269531 C 410.371094 447.3125 410.363281 449.757812 410.355469 452.644531 C 410.355469 453.296875 410.609375 453.902344 411.03125 454.347656 C 411.023438 454.414062 411.007812 454.488281 411 454.558594 C 410.464844 454.839844 410.042969 455.316406 409.832031 455.917969 C 409.226562 457.636719 408.09375 459.269531 406.796875 460.28125 C 406.175781 460.761719 405.835938 461.699219 405.855469 462.484375 C 405.898438 463.808594 405.925781 464.585938 406.070312 465.140625 C 406.527344 467.023438 408.042969 468.4375 410.019531 468.832031 C 412.09375 469.25 415.210938 471.472656 417.324219 473.890625 C 413.902344 476.34375 409.738281 477.824219 405.214844 477.824219 C 400.691406 477.824219 396.53125 476.34375 393.105469 473.890625 Z M 426.097656 456.941406 C 426.097656 462.144531 424.117188 466.847656 420.960938 470.507812 C 418.417969 467.667969 414.425781 464.707031 410.855469 464.023438 C 410.832031 463.855469 410.8125 463.613281 410.800781 463.308594 C 412.140625 462.011719 413.28125 460.367188 414.0625 458.578125 C 414.972656 457.917969 415.65625 456.753906 415.921875 455.261719 C 416.160156 453.816406 415.898438 452.507812 415.273438 451.582031 C 415.265625 448.203125 415.066406 445.058594 412.816406 442.800781 C 411.15625 441.132812 408.683594 440.320312 405.167969 440.316406 C 401.742188 440.320312 399.265625 441.132812 397.609375 442.800781 C 395.367188 445.050781 395.160156 448.175781 395.148438 451.578125 C 394.519531 452.511719 394.265625 453.828125 394.511719 455.300781 C 394.773438 456.773438 395.453125 457.929688 396.359375 458.585938 C 397.144531 460.363281 398.273438 462 399.609375 463.289062 C 399.578125 463.589844 399.53125 463.84375 399.433594 464.007812 C 395.984375 464.707031 392.007812 467.664062 389.46875 470.507812 C 386.308594 466.847656 384.324219 462.144531 384.324219 456.941406 C 384.324219 445.429688 393.699219 436.0625 405.214844 436.0625 C 416.730469 436.0625 426.097656 445.429688 426.097656 456.941406 Z M 357.828125 293.40625 C 356.527344 292.394531 355.394531 290.757812 354.785156 289.035156 C 354.574219 288.433594 354.152344 287.964844 353.621094 287.679688 C 353.609375 287.605469 353.59375 287.523438 353.578125 287.445312 C 354.007812 286.984375 354.261719 286.363281 354.261719 285.707031 C 354.25 282.878906 354.246094 280.433594 355.285156 279.390625 C 355.96875 278.707031 357.339844 278.359375 359.441406 278.355469 C 361.472656 278.359375 362.847656 278.707031 363.527344 279.390625 C 364.566406 280.433594 364.5625 282.878906 364.550781 285.765625 C 364.550781 286.417969 364.808594 287.019531 365.230469 287.464844 C 365.214844 287.535156 365.207031 287.613281 365.191406 287.679688 C 364.65625 287.960938 364.234375 288.4375 364.023438 289.039062 C 363.417969 290.761719 362.285156 292.394531 360.988281 293.40625 C 360.378906 293.882812 360.027344 294.625 360.046875 295.402344 C 360.085938 296.96875 360.121094 297.710938 360.261719 298.265625 C 360.71875 300.136719 362.230469 301.550781 364.210938 301.953125 C 366.285156 302.371094 369.402344 304.59375 371.515625 307.011719 C 368.089844 309.460938 363.929688 310.941406 359.40625 310.941406 C 354.886719 310.941406 350.722656 309.460938 347.300781 307.011719 C 349.410156 304.59375 352.527344 302.371094 354.609375 301.953125 C 356.582031 301.550781 358.09375 300.136719 358.550781 298.265625 C 358.691406 297.710938 358.730469 296.96875 358.769531 295.402344 C 358.785156 294.625 358.4375 293.882812 357.828125 293.40625 Z M 338.519531 290.0625 C 338.519531 278.550781 347.890625 269.179688 359.40625 269.179688 C 370.921875 269.179688 380.296875 278.550781 380.296875 290.0625 C 380.296875 295.265625 378.3125 299.96875 375.152344 303.628906 C 372.605469 300.785156 368.613281 297.828125 365.050781 297.160156 C 365.023438 296.988281 365.007812 296.730469 364.992188 296.429688 C 366.335938 295.136719 367.472656 293.488281 368.257812 291.699219 C 369.164062 291.039062 369.847656 289.878906 370.117188 288.394531 C 370.355469 286.9375 370.101562 285.628906 369.472656 284.699219 C 369.460938 281.324219 369.265625 278.183594 367.011719 275.921875 C 365.355469 274.253906 362.878906 273.445312 359.363281 273.4375 C 355.933594 273.445312 353.460938 274.253906 351.800781 275.921875 C 349.558594 278.175781 349.351562 281.296875 349.34375 284.703125 C 348.710938 285.632812 348.457031 286.953125 348.703125 288.421875 C 348.96875 289.894531 349.648438 291.054688 350.558594 291.707031 C 351.339844 293.484375 352.46875 295.125 353.800781 296.410156 C 353.773438 296.710938 353.722656 296.96875 353.632812 297.128906 C 350.183594 297.824219 346.207031 300.785156 343.660156 303.628906 C 340.5 299.96875 338.519531 295.265625 338.519531 290.0625 Z M 353.148438 315.003906 C 355.164062 315.511719 357.238281 315.859375 359.40625 315.859375 C 364.15625 315.859375 368.554688 314.480469 372.382812 312.234375 L 390.4375 337.25 C 386.183594 340.777344 382.757812 345.25 380.410156 350.316406 L 345.859375 335.511719 Z M 317.085938 358.128906 C 288.957031 358.128906 266.070312 381.007812 266.070312 409.128906 C 266.070312 413.351562 266.644531 417.433594 267.617188 421.359375 L 239.886719 429.652344 C 236.921875 421.738281 231.347656 415.113281 224.191406 410.8125 L 259.640625 341.617188 C 264.148438 343.566406 269.113281 344.660156 274.335938 344.660156 C 288.378906 344.660156 301.023438 336.730469 307.339844 324.351562 L 339.683594 338.214844 L 331.828125 360.320312 C 327.15625 358.90625 322.210938 358.128906 317.085938 358.128906 Z M 271.246094 313.4375 C 269.152344 311.796875 267.316406 309.167969 266.34375 306.40625 C 266.074219 305.636719 265.457031 305.074219 264.710938 304.859375 C 264.625 304.683594 264.523438 304.414062 264.457031 304.0625 C 264.394531 303.671875 264.398438 303.371094 264.421875 303.171875 C 265.082031 302.695312 265.5 301.890625 265.5 301.050781 C 265.488281 297.257812 265.480469 293.984375 266.59375 291.902344 C 267.324219 290.535156 268.859375 288.960938 274.386719 288.953125 C 279.8125 288.960938 281.34375 290.535156 282.074219 291.902344 C 283.1875 293.984375 283.179688 297.257812 283.167969 301.15625 C 283.167969 301.992188 283.585938 302.746094 284.246094 303.195312 C 284.269531 303.386719 284.273438 303.671875 284.214844 304.019531 C 284.148438 304.398438 284.042969 304.679688 283.957031 304.859375 C 283.210938 305.074219 282.59375 305.636719 282.324219 306.40625 C 281.351562 309.167969 279.519531 311.796875 277.421875 313.4375 C 276.808594 313.917969 276.457031 314.730469 276.480469 315.507812 C 276.53125 317.449219 276.574219 318.679688 276.765625 319.429688 C 277.332031 321.765625 279.230469 323.527344 281.707031 324.019531 C 285.285156 324.742188 290.855469 328.753906 294.09375 332.882812 C 288.546875 337.199219 281.671875 339.742188 274.335938 339.742188 C 266.875 339.742188 260.023438 337.171875 254.554688 332.90625 C 257.792969 328.765625 263.375 324.742188 266.953125 324.019531 C 269.4375 323.527344 271.335938 321.765625 271.902344 319.445312 C 272.09375 318.679688 272.140625 317.449219 272.191406 315.441406 C 272.210938 314.660156 271.859375 313.917969 271.246094 313.4375 Z M 274.335938 275.324219 C 292.101562 275.324219 306.554688 289.773438 306.554688 307.53125 C 306.554688 311.941406 305.679688 316.210938 303.957031 320.230469 C 302.4375 323.765625 300.28125 326.871094 297.734375 329.570312 C 293.691406 324.542969 287.375 320.148438 282.675781 319.199219 C 282.453125 319.152344 281.707031 318.953125 281.546875 318.273438 C 281.472656 317.917969 281.445312 317.257812 281.425781 316.488281 C 283.554688 314.550781 285.351562 311.972656 286.527344 309.167969 C 287.753906 308.410156 288.699219 306.878906 289.0625 304.851562 C 289.398438 302.816406 289.011719 301.050781 288.089844 299.933594 C 288.089844 296.082031 287.957031 292.476562 286.417969 289.585938 C 284.421875 285.859375 280.492188 284.042969 274.273438 284.035156 C 268.175781 284.042969 264.246094 285.859375 262.25 289.585938 C 260.71875 292.457031 260.585938 296.039062 260.578125 299.9375 C 259.65625 301.054688 259.273438 302.832031 259.609375 304.898438 C 259.972656 306.890625 260.917969 308.417969 262.140625 309.167969 C 263.316406 311.972656 265.113281 314.550781 267.242188 316.488281 C 267.222656 317.246094 267.195312 317.914062 267.128906 318.265625 C 266.960938 318.953125 266.214844 319.152344 265.988281 319.199219 C 261.285156 320.148438 254.960938 324.554688 250.917969 329.589844 C 245.476562 323.820312 242.113281 316.070312 242.113281 307.53125 C 242.113281 289.773438 256.566406 275.324219 274.335938 275.324219 Z M 165.914062 351.183594 C 165.914062 339.671875 175.285156 330.300781 186.800781 330.300781 C 198.316406 330.300781 207.6875 339.671875 207.6875 351.183594 C 207.6875 356.386719 205.707031 361.089844 202.546875 364.75 C 200 361.90625 196.011719 358.949219 192.445312 358.277344 C 192.417969 358.105469 192.402344 357.851562 192.390625 357.546875 C 193.734375 356.253906 194.867188 354.605469 195.65625 352.816406 C 196.558594 352.15625 197.242188 350.992188 197.511719 349.503906 C 197.75 348.023438 197.496094 346.714844 196.867188 345.792969 C 196.832031 340.765625 196.234375 334.574219 186.753906 334.558594 C 182.324219 334.566406 179.445312 335.929688 177.957031 338.726562 C 176.867188 340.765625 176.746094 343.195312 176.738281 345.824219 C 176.113281 346.757812 175.851562 348.074219 176.097656 349.542969 C 176.363281 351.015625 177.039062 352.167969 177.949219 352.828125 C 178.730469 354.601562 179.859375 356.242188 181.195312 357.53125 C 181.167969 357.832031 181.117188 358.089844 181.023438 358.25 C 177.574219 358.945312 173.597656 361.90625 171.054688 364.75 C 167.894531 361.089844 165.914062 356.386719 165.914062 351.183594 Z M 174.695312 368.132812 C 176.804688 365.714844 179.917969 363.492188 181.988281 363.070312 C 183.972656 362.675781 185.492188 361.261719 185.945312 359.386719 C 186.085938 358.8125 186.113281 358.042969 186.164062 356.535156 C 186.1875 355.75 185.835938 355.003906 185.214844 354.523438 C 183.917969 353.507812 182.785156 351.878906 182.179688 350.160156 C 181.96875 349.558594 181.546875 349.085938 181.019531 348.800781 C 181.003906 348.726562 180.988281 348.640625 180.972656 348.566406 C 181.402344 348.105469 181.65625 347.480469 181.65625 346.824219 C 181.652344 344.480469 181.640625 342.261719 182.296875 341.039062 C 182.527344 340.613281 183.125 339.484375 186.835938 339.476562 C 191.773438 339.484375 191.957031 340.886719 191.945312 346.886719 C 191.945312 347.535156 192.203125 348.136719 192.625 348.582031 C 192.609375 348.65625 192.59375 348.730469 192.585938 348.800781 C 192.054688 349.082031 191.628906 349.558594 191.417969 350.160156 C 190.8125 351.882812 189.679688 353.511719 188.382812 354.519531 C 187.765625 355.003906 187.417969 355.800781 187.441406 356.585938 C 187.480469 357.980469 187.511719 358.796875 187.65625 359.382812 C 188.113281 361.261719 189.625 362.675781 191.605469 363.070312 C 193.679688 363.492188 196.796875 365.714844 198.910156 368.132812 C 195.484375 370.582031 191.324219 372.0625 186.800781 372.0625 C 182.28125 372.0625 178.117188 370.582031 174.695312 368.132812 Z M 194.238281 375.761719 C 204.828125 372.546875 212.605469 362.808594 212.605469 351.183594 C 212.605469 347.921875 211.933594 344.828125 210.824219 341.953125 L 242.3125 326.25 C 245.46875 331.625 249.933594 336.128906 255.273438 339.339844 L 219.828125 408.535156 C 215.316406 406.585938 210.351562 405.492188 205.128906 405.492188 C 203.476562 405.492188 201.863281 405.636719 200.265625 405.847656 Z M 172.914062 442.617188 C 172.914062 424.855469 187.363281 410.410156 205.128906 410.410156 C 222.894531 410.410156 237.351562 424.855469 237.351562 442.617188 C 237.351562 451.15625 233.988281 458.90625 228.546875 464.675781 C 224.503906 459.636719 218.175781 455.234375 213.476562 454.285156 C 213.25 454.238281 212.503906 454.039062 212.339844 453.359375 C 212.269531 453.003906 212.238281 452.34375 212.222656 451.570312 C 214.347656 449.632812 216.152344 447.058594 217.324219 444.25 C 218.546875 443.496094 219.496094 441.960938 219.859375 439.9375 C 220.191406 437.902344 219.804688 436.136719 218.882812 435.023438 C 218.882812 431.171875 218.753906 427.5625 217.210938 424.671875 C 215.21875 420.945312 211.289062 419.128906 205.066406 419.117188 C 198.972656 419.128906 195.042969 420.945312 193.046875 424.671875 C 191.515625 427.542969 191.378906 431.125 191.375 435.023438 C 190.453125 436.144531 190.070312 437.917969 190.40625 439.980469 C 190.769531 441.976562 191.710938 443.5 192.9375 444.253906 C 194.113281 447.058594 195.910156 449.636719 198.039062 451.570312 C 198.019531 452.328125 197.992188 453 197.921875 453.351562 C 197.753906 454.039062 197.011719 454.238281 196.785156 454.285156 C 192.082031 455.234375 185.757812 459.636719 181.714844 464.671875 C 176.273438 458.902344 172.914062 451.152344 172.914062 442.617188 Z M 185.351562 467.988281 C 188.589844 463.851562 194.171875 459.832031 197.753906 459.109375 C 200.238281 458.609375 202.132812 456.847656 202.699219 454.53125 C 202.890625 453.761719 202.933594 452.535156 202.988281 450.523438 C 203.007812 449.746094 202.65625 449.003906 202.039062 448.519531 C 199.945312 446.878906 198.109375 444.253906 197.140625 441.488281 C 196.871094 440.722656 196.25 440.160156 195.507812 439.945312 C 195.421875 439.769531 195.320312 439.5 195.253906 439.144531 C 195.191406 438.757812 195.195312 438.453125 195.21875 438.253906 C 195.875 437.777344 196.292969 436.972656 196.292969 436.136719 C 196.285156 432.34375 196.277344 429.066406 197.390625 426.988281 C 198.121094 425.617188 199.652344 424.046875 205.183594 424.035156 C 210.605469 424.046875 212.140625 425.617188 212.871094 426.988281 C 213.984375 429.066406 213.972656 432.34375 213.964844 436.238281 C 213.964844 437.078125 214.382812 437.832031 215.039062 438.277344 C 215.066406 438.472656 215.070312 438.753906 215.011719 439.101562 C 214.945312 439.484375 214.839844 439.765625 214.746094 439.945312 C 214.007812 440.160156 213.386719 440.722656 213.121094 441.488281 C 212.148438 444.253906 210.3125 446.878906 208.21875 448.519531 C 207.605469 449.003906 207.253906 449.8125 207.277344 450.59375 C 207.324219 452.535156 207.367188 453.761719 207.5625 454.515625 C 208.128906 456.847656 210.019531 458.609375 212.503906 459.109375 C 216.089844 459.832031 221.671875 463.851562 224.910156 467.988281 C 219.441406 472.257812 212.585938 474.828125 205.128906 474.828125 C 197.671875 474.828125 190.816406 472.257812 185.351562 467.988281 Z M 264.277344 519.515625 C 266.386719 517.097656 269.5 514.875 271.570312 514.457031 C 273.5625 514.058594 275.078125 512.644531 275.519531 510.796875 C 275.667969 510.210938 275.699219 509.433594 275.746094 507.917969 C 275.769531 507.136719 275.421875 506.386719 274.800781 505.90625 C 273.503906 504.894531 272.371094 503.261719 271.765625 501.542969 C 271.550781 500.941406 271.128906 500.46875 270.601562 500.183594 C 270.585938 500.109375 270.574219 500.027344 270.558594 499.949219 C 270.984375 499.488281 271.242188 498.867188 271.242188 498.210938 C 271.230469 495.382812 271.226562 492.9375 272.261719 491.894531 C 272.945312 491.210938 274.320312 490.863281 276.417969 490.859375 C 278.445312 490.863281 279.820312 491.210938 280.503906 491.894531 C 281.539062 492.9375 281.535156 495.382812 281.527344 498.269531 C 281.527344 498.921875 281.78125 499.523438 282.203125 499.972656 C 282.195312 500.039062 282.179688 500.113281 282.164062 500.183594 C 281.636719 500.46875 281.214844 500.941406 281.003906 501.542969 C 280.398438 503.261719 279.261719 504.894531 277.964844 505.90625 C 277.347656 506.386719 277.003906 507.328125 277.023438 508.109375 C 277.066406 509.433594 277.097656 510.210938 277.234375 510.757812 C 277.6875 512.644531 279.207031 514.058594 281.191406 514.457031 C 283.261719 514.875 286.378906 517.097656 288.496094 519.515625 C 285.070312 521.96875 280.910156 523.449219 276.386719 523.449219 C 271.863281 523.449219 267.699219 521.96875 264.277344 519.515625 Z M 297.269531 502.566406 C 297.269531 507.769531 295.289062 512.472656 292.128906 516.132812 C 289.582031 513.292969 285.59375 510.332031 282.027344 509.648438 C 282 509.480469 281.984375 509.238281 281.972656 508.933594 C 283.3125 507.636719 284.453125 505.992188 285.234375 504.210938 C 286.144531 503.550781 286.824219 502.382812 287.089844 500.898438 C 287.328125 499.441406 287.074219 498.132812 286.445312 497.203125 C 286.4375 493.824219 286.238281 490.683594 283.984375 488.425781 C 282.328125 486.757812 279.855469 485.945312 276.335938 485.941406 C 272.914062 485.945312 270.4375 486.757812 268.78125 488.425781 C 266.535156 490.675781 266.332031 493.800781 266.320312 497.203125 C 265.691406 498.136719 265.4375 499.453125 265.683594 500.925781 C 265.945312 502.398438 266.625 503.554688 267.535156 504.210938 C 268.316406 505.988281 269.445312 507.625 270.777344 508.914062 C 270.75 509.214844 270.703125 509.464844 270.605469 509.632812 C 267.152344 510.328125 263.179688 513.289062 260.636719 516.132812 C 257.480469 512.472656 255.496094 507.769531 255.496094 502.566406 C 255.496094 491.054688 264.871094 481.6875 276.386719 481.6875 C 287.902344 481.6875 297.269531 491.054688 297.269531 502.566406 Z M 284.335938 478.152344 C 281.816406 477.328125 279.175781 476.769531 276.386719 476.769531 C 269.363281 476.769531 263 479.605469 258.339844 484.171875 L 235.023438 464.554688 C 239.558594 458.402344 242.269531 450.828125 242.269531 442.617188 C 242.269531 439.777344 241.921875 437.019531 241.3125 434.359375 L 269.027344 426.074219 C 273.472656 438.636719 282.6875 448.929688 294.511719 454.796875 Z M 287.917969 444.777344 C 288.015625 444.6875 288.140625 444.636719 288.222656 444.527344 C 292.882812 438.308594 301.113281 432.347656 306.5625 431.25 C 309.660156 430.632812 312.023438 428.449219 312.730469 425.5625 C 312.964844 424.613281 313.023438 422.996094 313.105469 420.175781 C 313.125 419.394531 312.773438 418.648438 312.15625 418.167969 C 309.078125 415.761719 306.390625 411.914062 304.976562 407.875 C 304.664062 406.988281 303.886719 406.375 302.988281 406.25 C 302.773438 405.964844 302.453125 405.328125 302.285156 404.425781 C 302.132812 403.472656 302.226562 402.753906 302.332031 402.414062 C 303.167969 401.980469 303.730469 401.039062 303.730469 400.074219 C 303.714844 394.621094 303.707031 389.917969 305.378906 386.78125 C 306.441406 384.792969 308.800781 382.140625 317.164062 382.128906 C 325.363281 382.140625 327.726562 384.789062 328.789062 386.777344 C 330.464844 389.910156 330.453125 394.609375 330.441406 400.199219 C 330.441406 401.167969 331.003906 402.027344 331.84375 402.425781 C 331.945312 402.769531 332.042969 403.472656 331.886719 404.386719 C 331.71875 405.324219 331.394531 405.964844 331.1875 406.25 C 330.289062 406.375 329.511719 406.988281 329.199219 407.875 C 327.78125 411.914062 325.09375 415.761719 322.015625 418.167969 C 321.402344 418.648438 321.050781 419.390625 321.070312 420.171875 C 321.140625 422.878906 321.203125 424.589844 321.445312 425.554688 C 322.148438 428.449219 324.515625 430.632812 327.601562 431.25 C 333.050781 432.347656 341.285156 438.308594 345.949219 444.527344 C 346.03125 444.636719 346.148438 444.695312 346.242188 444.789062 C 338.292969 451.296875 328.140625 455.210938 317.085938 455.210938 C 306.027344 455.210938 295.871094 451.292969 287.917969 444.777344 Z M 349.835938 441.511719 C 344.449219 434.371094 335.125 427.75 328.570312 426.429688 C 327.351562 426.183594 326.472656 425.421875 326.21875 424.378906 C 326.125 423.953125 326.0625 422.519531 326.023438 421.234375 C 329.125 418.519531 331.734375 414.792969 333.378906 410.726562 C 334.980469 409.898438 336.253906 407.902344 336.734375 405.222656 C 337.1875 402.5 336.640625 400.183594 335.363281 398.871094 C 335.367188 393.460938 335.230469 388.394531 333.132812 384.460938 C 330.527344 379.59375 325.3125 377.222656 316.996094 377.210938 C 308.855469 377.222656 303.636719 379.597656 301.035156 384.46875 C 298.949219 388.375 298.808594 393.40625 298.808594 398.875 C 297.539062 400.1875 296.992188 402.511719 297.4375 405.261719 C 297.921875 407.914062 299.191406 409.898438 300.796875 410.726562 C 302.4375 414.792969 305.046875 418.519531 308.152344 421.230469 C 308.109375 422.519531 308.050781 423.960938 307.953125 424.386719 C 307.699219 425.421875 306.820312 426.183594 305.59375 426.429688 C 299.039062 427.75 289.71875 434.371094 284.335938 441.511719 C 276.09375 433.183594 270.992188 421.742188 270.992188 409.128906 C 270.992188 383.71875 291.667969 363.046875 317.085938 363.046875 C 342.503906 363.046875 363.183594 383.71875 363.183594 409.128906 C 363.183594 421.742188 358.078125 433.183594 349.835938 441.511719 Z M 362.871094 386.773438 C 357.394531 375.617188 348.003906 366.730469 336.457031 361.972656 L 344.210938 340.15625 L 378.617188 354.898438 C 377.546875 358.359375 376.964844 362.03125 376.964844 365.835938 C 376.964844 370.691406 377.929688 375.316406 379.628906 379.570312 Z M 394.324219 391.210938 C 397.558594 387.074219 403.144531 383.050781 406.734375 382.328125 C 409.214844 381.828125 411.109375 380.066406 411.675781 377.734375 C 411.863281 376.96875 411.910156 375.714844 411.964844 373.746094 C 411.984375 372.964844 411.632812 372.222656 411.019531 371.738281 C 408.921875 370.101562 407.089844 367.472656 406.117188 364.707031 C 405.847656 363.941406 405.230469 363.378906 404.484375 363.164062 C 404.398438 362.988281 404.292969 362.71875 404.230469 362.359375 C 404.167969 361.972656 404.171875 361.671875 404.195312 361.476562 C 404.851562 361 405.269531 360.203125 405.269531 359.367188 C 405.257812 355.570312 405.25 352.292969 406.363281 350.210938 C 407.09375 348.839844 408.625 347.265625 414.160156 347.257812 C 419.585938 347.265625 421.117188 348.839844 421.847656 350.210938 C 422.960938 352.292969 422.953125 355.570312 422.941406 359.460938 C 422.941406 360.296875 423.359375 361.050781 424.019531 361.496094 C 424.039062 361.691406 424.042969 361.976562 423.984375 362.328125 C 423.917969 362.707031 423.8125 362.984375 423.726562 363.164062 C 422.980469 363.382812 422.359375 363.941406 422.09375 364.707031 C 421.121094 367.472656 419.285156 370.101562 417.191406 371.738281 C 416.578125 372.222656 416.226562 372.964844 416.246094 373.746094 C 416.296875 375.714844 416.347656 376.96875 416.535156 377.734375 C 417.101562 380.066406 418.992188 381.828125 421.476562 382.328125 C 425.066406 383.050781 430.652344 387.074219 433.882812 391.210938 C 428.417969 395.480469 421.5625 398.050781 414.101562 398.050781 C 406.644531 398.050781 399.789062 395.480469 394.324219 391.210938 Z M 437.519531 387.894531 C 433.476562 382.855469 427.152344 378.453125 422.449219 377.503906 C 422.222656 377.460938 421.476562 377.261719 421.3125 376.59375 C 421.246094 376.234375 421.21875 375.558594 421.195312 374.792969 C 423.320312 372.855469 425.117188 370.28125 426.296875 367.476562 C 427.527344 366.722656 428.472656 365.183594 428.832031 363.164062 C 429.171875 361.125 428.789062 359.355469 427.863281 358.238281 C 427.863281 354.390625 427.730469 350.785156 426.191406 347.894531 C 424.195312 344.164062 420.265625 342.347656 414.039062 342.339844 C 407.945312 342.347656 404.015625 344.164062 402.019531 347.894531 C 400.488281 350.765625 400.351562 354.347656 400.347656 358.242188 C 399.425781 359.359375 399.042969 361.136719 399.382812 363.195312 C 399.742188 365.195312 400.683594 366.726562 401.914062 367.476562 C 403.089844 370.28125 404.886719 372.855469 407.015625 374.792969 C 406.992188 375.554688 406.96875 376.226562 406.902344 376.570312 C 406.734375 377.261719 405.988281 377.460938 405.761719 377.503906 C 401.054688 378.453125 394.730469 382.859375 390.6875 387.894531 C 385.246094 382.125 381.886719 374.375 381.886719 365.835938 C 381.886719 348.078125 396.335938 333.628906 414.101562 333.628906 C 431.867188 333.628906 446.324219 348.078125 446.324219 365.835938 C 446.324219 374.375 442.960938 382.125 437.519531 387.894531 Z M 437.519531 387.894531 " fill-opacity="1" fill-rule="nonzero"/></g></svg>