<svg xmlns="http://www.w3.org/2000/svg" xmlns:xlink="http://www.w3.org/1999/xlink" width="816" zoomAndPan="magnify" viewBox="183 273 245 247" height="1056" preserveAspectRatio="xMidYMid meet" version="1.0"><defs><clipPath id="16430f9767"><path d="M 428.398438 0 L 612 0 L 612 183.601562 L 428.398438 183.601562 Z M 428.398438 0 " clip-rule="nonzero"/></clipPath><clipPath id="bd0e27c89a"><path d="M 183.601562 273 L 428.101562 273 L 428.101562 519.984375 L 183.601562 519.984375 Z M 183.601562 273 " clip-rule="nonzero"/></clipPath></defs><rect x="-61.2" width="734.4" fill="#ffffff" y="-79.199999" height="950.399992" fill-opacity="1"/><rect x="-61.2" width="734.4" fill="#1a73e8" y="-79.199999" height="950.399992" fill-opacity="1"/><g clip-path="url(#16430f9767)"><path fill="#1a73e8" d="M 428.398438 0 L 612 0 L 612 183.601562 L 428.398438 183.601562 Z M 428.398438 0 " fill-opacity="1" fill-rule="nonzero"/></g><g clip-path="url(#bd0e27c89a)"><path fill="#000000" d="M 192.203125 412.847656 C 186.898438 418.152344 183.605469 425.46875 183.605469 433.511719 L 183.605469 444.371094 C 183.605469 444.671875 183.847656 444.914062 184.144531 444.914062 L 234.707031 444.914062 C 234.894531 444.914062 235.054688 444.824219 235.160156 444.667969 C 235.261719 444.511719 235.277344 444.328125 235.203125 444.15625 C 230.59375 433.453125 228.414062 421.652344 229.082031 409.5 C 229.09375 409.300781 229.003906 409.125 228.835938 409.015625 C 217.289062 401.445312 202.042969 403.007812 192.203125 412.847656 Z M 305.851562 345.671875 C 343.453125 345.671875 373.9375 376.160156 373.9375 413.765625 C 373.9375 430.289062 368.050781 445.4375 358.261719 457.230469 C 358.082031 457.449219 358.097656 457.761719 358.292969 457.960938 L 369.839844 469.507812 C 370.050781 469.71875 370.394531 469.71875 370.605469 469.507812 L 374.679688 465.433594 C 375.421875 464.691406 376.664062 464.691406 377.40625 465.433594 L 411.269531 499.304688 C 411.652344 499.683594 411.84375 500.179688 411.84375 500.664062 L 411.828125 500.664062 C 411.828125 501.164062 411.640625 501.65625 411.269531 502.027344 L 394.097656 519.203125 C 393.355469 519.945312 392.113281 519.945312 391.371094 519.203125 L 357.507812 485.332031 C 356.765625 484.589844 356.765625 483.347656 357.507812 482.609375 L 361.585938 478.53125 C 361.796875 478.320312 361.796875 477.976562 361.585938 477.765625 L 350.039062 466.214844 C 349.839844 466.019531 349.527344 466.003906 349.308594 466.183594 C 322.289062 488.621094 282.578125 486.789062 257.707031 461.914062 C 231.117188 435.324219 231.117188 392.210938 257.707031 365.617188 C 270.027344 353.292969 287.050781 345.671875 305.851562 345.671875 Z M 347.886719 371.726562 C 324.671875 348.507812 287.03125 348.507812 263.816406 371.726562 C 238.128906 397.414062 241.359375 439.75 270.230469 461.371094 C 270.398438 461.496094 270.609375 461.515625 270.796875 461.421875 C 270.988281 461.328125 271.097656 461.148438 271.097656 460.9375 L 271.097656 435.292969 C 271.097656 417.496094 284.4375 402.679688 302.449219 400.992188 L 303.8125 400.863281 C 303.988281 400.847656 304.148438 400.910156 304.265625 401.039062 C 304.386719 401.167969 304.429688 401.332031 304.394531 401.507812 L 294.824219 450.28125 C 294.792969 450.441406 294.828125 450.59375 294.929688 450.71875 L 305.285156 463.832031 C 305.390625 463.964844 305.539062 464.039062 305.710938 464.039062 C 305.882812 464.039062 306.027344 463.964844 306.136719 463.832031 L 316.769531 450.367188 C 316.871094 450.238281 316.910156 450.089844 316.878906 449.925781 L 307.375 401.511719 C 307.339844 401.335938 307.386719 401.171875 307.503906 401.042969 C 307.625 400.910156 307.78125 400.851562 307.957031 400.867188 L 309.324219 400.996094 C 327.308594 402.722656 340.601562 417.523438 340.601562 435.292969 L 340.601562 460.933594 C 340.601562 461.144531 340.714844 461.324219 340.902344 461.417969 C 341.089844 461.511719 341.300781 461.496094 341.46875 461.367188 C 370.339844 439.75 373.570312 397.414062 347.886719 371.726562 Z M 289.273438 382.78125 C 289.273438 391.953125 296.667969 399.363281 305.941406 399.363281 C 314.976562 399.359375 322.429688 391.933594 322.429688 382.78125 C 322.429688 373.625 315.007812 366.203125 305.851562 366.203125 C 296.695312 366.203125 289.273438 373.625 289.273438 382.78125 Z M 419.496094 412.847656 C 409.65625 403.003906 394.410156 401.445312 382.863281 409.015625 C 382.695312 409.125 382.609375 409.300781 382.617188 409.5 C 383.285156 421.652344 381.105469 433.453125 376.496094 444.15625 C 376.421875 444.332031 376.4375 444.511719 376.539062 444.671875 C 376.644531 444.828125 376.804688 444.914062 376.992188 444.914062 L 427.554688 444.914062 C 427.851562 444.914062 428.09375 444.671875 428.09375 444.371094 L 428.09375 433.511719 C 428.097656 425.46875 424.800781 418.152344 419.496094 412.847656 Z M 398.835938 366.160156 C 385.527344 366.160156 378.828125 382.324219 388.242188 391.734375 C 397.632812 401.128906 413.8125 394.472656 413.8125 381.140625 C 413.816406 372.867188 407.109375 366.160156 398.835938 366.160156 Z M 353.316406 315.417969 C 339.023438 315.445312 326.617188 324.824219 322.316406 338.03125 C 322.269531 338.179688 322.285156 338.328125 322.363281 338.464844 C 322.441406 338.605469 322.558594 338.691406 322.714844 338.726562 C 345.460938 343.816406 364.550781 359.039062 374.769531 379.640625 C 374.878906 379.863281 375.113281 379.980469 375.359375 379.929688 C 375.601562 379.882812 375.773438 379.6875 375.792969 379.4375 C 376.3125 372.320312 380.074219 365.988281 385.789062 362.070312 C 385.9375 361.964844 386.023438 361.808594 386.023438 361.625 L 386.023438 348.0625 C 386.023438 330.105469 371.332031 315.417969 353.382812 315.417969 C 353.359375 315.417969 353.339844 315.417969 353.316406 315.417969 Z M 336.472656 290.382812 C 336.472656 299.738281 344.050781 307.3125 353.445312 307.292969 C 362.730469 307.277344 370.292969 299.707031 370.292969 290.382812 C 370.292969 281.039062 362.722656 273.46875 353.382812 273.46875 C 344.042969 273.46875 336.472656 281.039062 336.472656 290.382812 Z M 246.359375 302.339844 C 252.960938 308.945312 263.671875 308.945312 270.273438 302.339844 C 276.878906 295.734375 276.878906 285.027344 270.273438 278.421875 C 263.671875 271.816406 252.960938 271.816406 246.359375 278.421875 C 239.753906 285.027344 239.753906 295.734375 246.359375 302.339844 Z M 229.203125 364.804688 C 233.023438 368.625 235.492188 373.757812 235.90625 379.4375 C 235.925781 379.6875 236.097656 379.882812 236.34375 379.929688 C 236.585938 379.980469 236.820312 379.863281 236.929688 379.640625 C 247.148438 359.039062 266.238281 343.816406 288.984375 338.726562 C 289.140625 338.691406 289.257812 338.601562 289.335938 338.464844 C 289.414062 338.328125 289.429688 338.179688 289.382812 338.03125 C 285.0625 324.761719 272.671875 315.453125 258.25 315.417969 C 240.472656 315.375 225.675781 330.09375 225.675781 348.0625 L 225.675781 361.625 C 225.675781 361.808594 225.757812 361.964844 225.910156 362.070312 C 227.09375 362.878906 228.191406 363.796875 229.203125 364.804688 Z M 202.273438 391.734375 C 196.421875 385.886719 196.421875 376.398438 202.273438 370.546875 C 211.683594 361.136719 227.84375 367.835938 227.84375 381.140625 C 227.84375 394.472656 211.664062 401.128906 202.273438 391.734375 Z M 202.273438 391.734375 " fill-opacity="1" fill-rule="evenodd"/></g></svg>