<svg xmlns="http://www.w3.org/2000/svg" xmlns:xlink="http://www.w3.org/1999/xlink" width="1728" zoomAndPan="magnify" viewBox="616 824 65 80.464844" height="2304" preserveAspectRatio="xMidYMid meet" version="1.0"><defs><clipPath id="519c16e54f"><path d="M 623.582031 839.582031 L 672.332031 839.582031 L 672.332031 888.332031 L 623.582031 888.332031 Z M 623.582031 839.582031 " clip-rule="nonzero"/></clipPath></defs><g clip-path="url(#519c16e54f)"><path fill="#000000" d="M 647.957031 839.582031 C 661.363281 839.582031 672.332031 850.546875 672.332031 863.957031 C 672.332031 877.363281 661.363281 888.332031 647.957031 888.332031 C 634.550781 888.332031 623.582031 877.363281 623.582031 863.957031 C 623.582031 850.546875 634.550781 839.582031 647.957031 839.582031 Z M 647.957031 842.28125 C 636.035156 842.28125 626.28125 852.035156 626.28125 863.957031 C 626.28125 875.875 636.035156 885.628906 647.957031 885.628906 C 659.875 885.628906 669.628906 875.875 669.628906 863.957031 C 669.628906 852.035156 659.875 842.28125 647.957031 842.28125 " fill-opacity="1" fill-rule="evenodd"/></g><path fill="#000000" d="M 643.03125 867.691406 L 657.070312 853.652344 C 658.28125 852.441406 660.238281 852.441406 661.449219 853.652344 C 662.65625 854.859375 662.65625 856.820312 661.449219 858.027344 L 645.234375 874.242188 C 645.230469 874.25 645.222656 874.253906 645.21875 874.257812 C 644.011719 875.46875 642.050781 875.46875 640.839844 874.257812 L 634.460938 867.878906 C 633.253906 866.671875 633.253906 864.710938 634.460938 863.5 C 635.671875 862.292969 637.632812 862.292969 638.839844 863.5 L 643.03125 867.691406 " fill-opacity="1" fill-rule="evenodd"/></svg>