<svg xmlns="http://www.w3.org/2000/svg" xmlns:xlink="http://www.w3.org/1999/xlink" width="816" zoomAndPan="magnify" viewBox="183 273 245 247" height="1056" preserveAspectRatio="xMidYMid meet" version="1.0"><defs><clipPath id="65ee5c6ca4"><path d="M 428.398438 0 L 612 0 L 612 183.601562 L 428.398438 183.601562 Z M 428.398438 0 " clip-rule="nonzero"/></clipPath><clipPath id="77df7d9746"><path d="M 183.601562 281.554688 L 428.101562 281.554688 L 428.101562 510.304688 L 183.601562 510.304688 Z M 183.601562 281.554688 " clip-rule="nonzero"/></clipPath></defs><rect x="-61.2" width="734.4" fill="#ffffff" y="-79.199999" height="950.399992" fill-opacity="1"/><rect x="-61.2" width="734.4" fill="#1a73e8" y="-79.199999" height="950.399992" fill-opacity="1"/><g clip-path="url(#65ee5c6ca4)"><path fill="#1a73e8" d="M 428.398438 0 L 612 0 L 612 183.601562 L 428.398438 183.601562 Z M 428.398438 0 " fill-opacity="1" fill-rule="nonzero"/></g><g clip-path="url(#77df7d9746)"><path fill="#000000" d="M 389.625 448.15625 L 390.488281 451.175781 C 386.699219 453.382812 381.957031 453.382812 378.21875 451.175781 L 379.082031 448.15625 C 382.53125 448.921875 386.125 448.96875 389.625 448.15625 Z M 298.851562 431.707031 L 297.511719 436.5 C 302.640625 439.761719 309.253906 439.667969 314.285156 436.5 C 313.996094 435.496094 313.230469 432.664062 312.941406 431.707031 C 308.292969 432.761719 303.453125 432.808594 298.851562 431.707031 Z M 222.074219 448.15625 L 221.261719 451.175781 C 225.046875 453.382812 229.792969 453.382812 233.53125 451.175781 L 232.714844 448.15625 C 229.167969 448.921875 225.574219 448.921875 222.074219 448.15625 Z M 221.117188 442.351562 C 235.015625 447.339844 249.347656 433.914062 245.414062 419.71875 C 239.328125 398.855469 208.992188 402.835938 208.609375 424.65625 C 208.609375 432.617188 213.640625 439.714844 221.117188 442.351562 Z M 213.113281 393.054688 L 234.777344 395.308594 C 235.878906 395.453125 236.789062 396.171875 237.078125 397.273438 C 237.652344 399.289062 238.417969 401.445312 239.378906 403.84375 C 254.714844 412.429688 255.144531 436.070312 240.046875 445.183594 C 240.046875 445.277344 243.882812 449.066406 243.882812 449.066406 C 247.285156 449.691406 250.640625 450.839844 253.660156 452.519531 L 268.753906 440.144531 C 269.425781 439.570312 270.289062 439.378906 271.152344 439.617188 C 277.476562 435.832031 285.195312 432.953125 292.621094 433.914062 L 293.726562 429.980469 C 285.671875 426.289062 279.058594 418.132812 277.238281 409.503906 C 277.191406 409.453125 277.191406 409.40625 277.191406 409.40625 C 247.238281 383.222656 265.929688 333.15625 305.753906 333.15625 C 345.722656 333.15625 364.511719 383.175781 334.367188 409.40625 C 332.496094 418.421875 326.171875 426.191406 317.832031 429.980469 L 317.925781 430.316406 L 318.933594 433.914062 C 326.363281 432.953125 334.03125 435.78125 340.355469 439.617188 C 341.171875 439.425781 342.082031 439.570312 342.753906 440.144531 L 357.898438 452.472656 C 360.964844 450.792969 364.320312 449.640625 367.769531 449.066406 L 371.605469 445.230469 C 356.410156 436.117188 356.699219 412.523438 372.179688 403.890625 C 373.089844 401.636719 373.90625 399.433594 374.574219 397.226562 C 374.910156 396.171875 375.820312 395.453125 376.875 395.355469 L 398.441406 393.101562 C 399.734375 393.003906 400.789062 391.855469 400.789062 390.609375 L 400.789062 362.746094 C 400.789062 361.402344 399.785156 360.300781 398.394531 360.109375 L 376.875 357.855469 C 375.820312 357.757812 374.910156 357.039062 374.574219 355.984375 C 373.183594 351.285156 371.269531 346.777344 368.96875 342.507812 C 368.441406 341.597656 368.585938 340.398438 369.253906 339.582031 L 382.960938 322.796875 C 383.777344 321.792969 383.679688 320.257812 382.769531 319.34375 L 363.21875 299.539062 C 362.257812 298.582031 360.773438 298.484375 359.765625 299.347656 L 342.847656 313.015625 C 341.984375 313.6875 340.835938 313.78125 339.925781 313.304688 C 335.613281 311 331.105469 309.128906 326.507812 307.738281 C 325.453125 307.402344 324.734375 306.542969 324.589844 305.4375 L 322.382812 283.808594 C 322.242188 282.515625 321.136719 281.554688 319.75 281.554688 L 291.953125 281.554688 C 290.609375 281.554688 289.507812 282.515625 289.316406 283.859375 L 287.109375 305.484375 C 286.96875 306.589844 286.25 307.453125 285.195312 307.789062 C 280.59375 309.128906 276.089844 311 271.773438 313.351562 C 270.816406 313.878906 269.667969 313.734375 268.804688 313.0625 L 252.03125 299.394531 C 250.976562 298.53125 249.488281 298.582031 248.578125 299.539062 L 228.832031 319.25 C 227.921875 320.160156 227.828125 321.695312 228.640625 322.75 L 242.347656 339.535156 C 243.019531 340.351562 243.164062 341.550781 242.636719 342.460938 C 240.335938 346.777344 238.464844 351.332031 237.078125 355.886719 C 236.789062 356.941406 235.878906 357.664062 234.777344 357.757812 L 213.160156 360.011719 C 211.820312 360.15625 210.8125 361.257812 210.8125 362.601562 L 210.8125 390.464844 C 210.8125 391.808594 211.867188 392.910156 213.113281 393.054688 Z M 329.8125 403.21875 C 329.8125 390.03125 319.078125 379.242188 305.851562 379.242188 C 279.828125 379.578125 272.78125 414.921875 296.601562 425.328125 C 311.792969 431.898438 330.101562 419.765625 329.8125 403.21875 Z M 403.089844 424.65625 C 403.425781 410.894531 387.5625 401.398438 375.628906 408.0625 C 361.300781 415.351562 362.976562 437.125 378.074219 442.351562 C 389.816406 446.859375 403.425781 437.269531 403.089844 424.65625 Z M 428.058594 510.304688 L 421.015625 474.675781 C 418.859375 463.164062 408.265625 454.101562 396.574219 453.957031 C 396.574219 453.957031 392.691406 456.117188 392.691406 456.066406 C 387.707031 458.945312 381.621094 458.609375 376.539062 456.164062 C 375.4375 455.730469 373.089844 453.910156 372.082031 453.957031 C 366.285156 454.101562 360.628906 456.355469 356.171875 460.097656 C 356.699219 460.335938 365.902344 508.292969 366.378906 510.304688 L 400.839844 510.304688 L 400.839844 495.582031 C 400.839844 494.097656 402.035156 492.898438 403.523438 492.898438 C 405.007812 492.898438 406.207031 494.097656 406.207031 495.582031 L 406.207031 510.304688 Z M 320.851562 438.898438 C 310.117188 446.046875 301.632812 445.996094 290.847656 438.898438 C 275.945312 439.140625 262.382812 450.554688 259.648438 465.179688 L 250.734375 510.257812 L 276.617188 510.257812 L 276.617188 495.535156 C 276.617188 494.050781 277.8125 492.851562 279.300781 492.851562 C 280.785156 492.851562 281.984375 494.050781 281.984375 495.535156 L 281.984375 510.257812 L 329.8125 510.257812 L 329.8125 495.535156 C 329.8125 494.050781 331.011719 492.851562 332.496094 492.851562 C 333.980469 492.851562 335.179688 494.050781 335.179688 495.535156 L 335.179688 510.257812 L 361.058594 510.257812 C 361.058594 510.257812 352.144531 465.179688 352.144531 465.179688 C 349.367188 450.648438 335.753906 439.089844 320.851562 438.898438 Z M 255.480469 460.097656 C 251.070312 456.402344 245.273438 454.101562 239.570312 453.957031 C 231.085938 459.617188 223.609375 459.570312 215.125 453.957031 C 203.433594 454.148438 192.839844 463.164062 190.683594 474.675781 L 183.640625 510.304688 L 203.289062 510.304688 L 203.289062 495.582031 C 203.289062 494.097656 204.488281 492.898438 205.972656 492.898438 C 207.457031 492.898438 208.65625 494.097656 208.65625 495.582031 L 208.65625 510.304688 L 245.320312 510.304688 C 245.511719 509.300781 255.289062 458.898438 255.480469 460.097656 Z M 255.480469 460.097656 " fill-opacity="1" fill-rule="nonzero"/></g></svg>